<?xml version="1.0" encoding="utf-8"?>
<!-- Generator: Adobe Illustrator 23.0.1, SVG Export Plug-In . SVG Version: 6.00 Build 0)  -->
<svg version="1.1" id="Camada_1" xmlns="http://www.w3.org/2000/svg" xmlns:xlink="http://www.w3.org/1999/xlink" x="0px" y="0px"
	 viewBox="0 0 1662 942.6" style="enable-background:new 0 0 1662 942.6;" xml:space="preserve">
<style type="text/css">
	.st0{fill:#EDEDED;}
	.st1{fill:#90268B;}
	.st2{fill:#F6921E;stroke:#FFFFFF;stroke-miterlimit:10;}
	.st3{fill:#F6921E;}
</style>
<rect y="-2.6" class="st0" width="1662" height="942.6"/>
<path class="st1" d="M1191.8,240.4c1.7,0.8,2.6,0.8,4.3,0.8c2.6,0,6-1.6,7.7-4c0.9-0.8,0.9-1.6,1.7-1.6c2.6-4,1.7-8.9-2.6-11.3
	c-4.3-2.4-9.4-1.6-12,2.4c-0.9,0.8-0.9,1.6-1.7,2.4C1186.7,233.1,1187.5,238,1191.8,240.4"/>
<path class="st1" d="M1215.8,223.3c1.7,0,3.4,0,4.3-0.8c7.7-4.9,15.4-5.7,15.4-5.7c4.3-0.8,7.7-4.9,7.7-9c-0.9-4.1-5.2-7.3-9.4-7.3
	c-0.9,0-11.1,1.6-22.3,8.1c-4.3,2.4-5.2,7.3-2.6,11.4C1209.8,221.7,1212.4,223.3,1215.8,223.3"/>
<path class="st1" d="M1188.4,476.8c-5.2,0-8.6,3.3-8.6,8.1v8.1c0,4.9,3.4,8.1,8.6,8.1s8.6-3.3,8.6-8.1v-8.1
	C1196.9,480,1193.5,476.8,1188.4,476.8"/>
<path class="st1" d="M1229.5,476.8c0-4.9-3.4-8.1-8.6-8.1s-8.6,3.3-8.6,8.1v24.5c0,4.9,3.4,8.1,8.6,8.1c5.1,0,8.6-3.3,8.6-8.1V476.8
	z"/>
<path class="st1" d="M1253.5,513.4c5.2,0,8.6-3.3,8.6-8.1v-32.6c0-4.9-3.4-8.1-8.6-8.1s-8.6,3.3-8.6,8.1v32.6
	C1245,509.4,1248.4,513.4,1253.5,513.4"/>
<path class="st1" d="M1294.7,501.2v-24.5c0-4.9-3.4-8.1-8.6-8.1s-8.6,3.3-8.6,8.1v24.5c0,4.9,3.4,8.1,8.6,8.1
	C1291.3,509.4,1294.7,505.3,1294.7,501.2"/>
<path class="st1" d="M1317.8,501.2c5.2,0,8.6-3.3,8.6-8.1V485c0-4.9-3.4-8.1-8.6-8.1s-8.6,3.3-8.6,8.1v8.1
	C1309.3,497.1,1313.6,501.2,1317.8,501.2"/>
<path class="st1" d="M1196.1,420.5c4.3,0,8.6-4.1,7.7-9c0-4.9-4.3-8.1-9.4-7.3c-15.4,0.8-46.3,10.6-54.9,43.2c-0.9,4.1,1.7,9,6,9.8
	h1.7c3.4,0,7.7-2.4,8.6-6.5C1165.2,423,1195.2,420.5,1196.1,420.5"/>
<path class="st1" d="M1366.7,617.8c-4.3-0.8-9.4,1.6-10.3,5.7c-7.7,28.5-37.7,30.2-38.6,31c-4.3,0-8.6,4.1-7.7,9
	c0,4.1,4.3,7.3,8.6,7.3h0.9c15.4-0.8,46.3-10.6,54.9-43.2C1374.4,623.5,1371.9,619.4,1366.7,617.8"/>
<path class="st1" d="M1252.7,581.9c-4.3,0-7.7-3.3-7.7-7.3c0-4.1,3.4-7.3,7.7-7.3s7.7,3.3,7.7,7.3
	C1260.4,578.6,1257,581.9,1252.7,581.9 M1252.7,550.9c-13.7,0-24.9,10.6-24.9,23.6s11.2,23.6,24.9,23.6s24.9-10.6,24.9-23.6
	S1266.4,550.9,1252.7,550.9"/>
<path class="st1" d="M1191.8,581.9c-4.3,0-7.7-3.3-7.7-7.3c0-4.1,3.4-7.3,7.7-7.3c4.3,0,7.7,3.3,7.7,7.3
	C1199.5,578.6,1196.1,581.9,1191.8,581.9 M1191.8,550.9c-13.7,0-24.9,10.6-24.9,23.6s11.2,23.6,24.9,23.6
	c13.7,0,24.9-10.6,24.9-23.6C1216.7,561.5,1205.5,550.9,1191.8,550.9"/>
<path class="st1" d="M1306.7,574.5c0-4.1,3.4-7.3,7.7-7.3c4.3,0,7.7,3.3,7.7,7.3c0,4.1-3.4,7.3-7.7,7.3S1306.7,578.6,1306.7,574.5
	 M1339.3,574.5c0-13-11.2-23.6-24.9-23.6c-13.7,0-24.9,10.6-24.9,23.6s11.2,23.6,24.9,23.6S1339.3,587.6,1339.3,574.5"/>
<path class="st1" d="M1215.8,264c8.6,0,16.3,6.5,16.3,15.5s-6.9,15.5-16.3,15.5s-16.3-7.3-16.3-16.3S1206.4,264,1215.8,264
	 M1215.8,310.5c18,0,33.4-13.9,33.4-31.8c0-17.1-14.6-31.8-33.4-31.8c-18,0-33.4,13.9-33.4,31.8S1196.9,310.5,1215.8,310.5"/>
<path class="st1" d="M1289.6,264c8.6,0,16.3,6.5,16.3,15.5s-6.9,15.5-16.3,15.5c-8.6,0-16.3-6.5-16.3-15.5
	C1273.3,270.6,1281,264,1289.6,264 M1289.6,310.5c18,0,33.4-13.9,33.4-31.8c0-17.1-14.6-31.8-33.4-31.8c-18,0-33.4,13.9-33.4,31.8
	C1256.1,296.6,1271.6,310.5,1289.6,310.5"/>
<path class="st1" d="M1189.2,334.1c0,4.9,3.4,8.1,8.6,8.1h105.4c5.2,0,8.6-3.3,8.6-8.1c0-4.9-3.4-8.1-8.6-8.1h-105.4
	C1192.7,326,1189.2,329.2,1189.2,334.1"/>
<path class="st1" d="M1470.5,598.2h-12.9c-5.2,0-8.6,3.3-8.6,8.2s3.4,8.2,8.6,8.2h12.9v19.6h-48.9v-31.8v-1.6v-120
	c0-37.5-18-71.7-47.2-93.7c36.9,5.7,96,29.3,96,123.1L1470.5,598.2L1470.5,598.2z M1470.5,656c0,11.4-10.3,21.2-22.3,21.2h-4.3
	c-12,0-22.3-9.8-22.3-21.2v-5.7h48.9L1470.5,656L1470.5,656z M1294.7,705h-83.2c-60,0-108.9-46.5-108.9-103.5V480.8
	c0-57,48.9-103.5,108.9-103.5h83.2c60,0,108.9,46.5,108.9,103.5v17.9v103.5C1403.6,658.5,1354.7,705,1294.7,705 M1352.1,817.4
	c-12,3.3-24,9.8-32.6,18.7c-3.4,3.3-3.4,8.2,0,11.4c1.7,1.6,3.4,2.4,6,2.4s4.3-0.8,6-2.4c10.3-10.6,24.9-16.3,40.3-16.3
	c22.3,0,40.3,17.1,40.3,37.5c0,4.1-3.4,6.5-7.7,6.5h-120v-44.8h18c5.2,0,8.6-3.3,8.6-8.2s-3.4-8.2-8.6-8.2h-18v-92.9h10.3
	c20.6,0,40.3-4.9,57.4-13L1352.1,817.4L1352.1,817.4z M1230.4,815h-18c-5.2,0-8.6,3.3-8.6,8.2s3.4,8.2,8.6,8.2h18v44.8h-120.9
	c-4.3,0-7.7-3.3-7.7-6.5c0-21.2,18-37.5,40.3-37.5c15.4,0,30,5.7,40.3,16.3c1.7,1.6,4.3,2.4,6,2.4c2.6,0,4.3-0.8,6-2.4
	c3.4-3.3,3.4-8.2,0-11.4c-9.4-9-20.6-15.5-32.6-18.7v-106c15.4,5.7,31.7,9.8,48.9,9.8h18.9V815H1230.4z M1085.5,656
	c0,11.4-10.3,21.2-22.3,21.2h-4.3c-12,0-22.3-9.8-22.3-21.2v-5.7h48.9L1085.5,656L1085.5,656z M1035.8,614.5h12.9
	c5.2,0,8.6-3.3,8.6-8.2s-3.4-8.2-8.6-8.2h-12.9v-88c0-94.5,59.2-118.2,96-123.1c-29.2,22-47.2,55.4-47.2,93.7v17.9v0.8v135.3h-48.9
	L1035.8,614.5L1035.8,614.5z M1253.5,187.4c48,0,86.6,36.7,86.6,82.3v98.6c-13.7-4.9-29.2-8.1-44.6-8.1h-83.2
	c-15.4,0-30.9,3.3-44.6,8.1v-98.6C1166.9,224.1,1205.5,187.4,1253.5,187.4 M1357.3,369.2v-99.4c0-51.3-42-93.7-95.2-97.8v-14.7
	c0-4.9-3.4-8.1-8.6-8.1s-8.6,3.3-8.6,8.1v13.9c-53.2,4.1-95.2,46.5-95.2,97.8v99.4c-96,1.6-131.2,73.4-131.2,141v123.9v16.3v5.7
	c0,20.4,18,37.5,39.4,37.5h4.3c20.6,0,36.9-14.7,39.4-33.4c10.3,17.9,25.7,32.6,43.7,43.2v111.7h-2.6c-31.7,0-57.4,24.5-57.4,53.8
	c0,13,11.2,22.8,24.9,22.8h129.5c5.2,0,8.6-3.3,8.6-8.2v-52.2v-7.3V721.3h18.9v101.9v7.3v53.8c0,4.9,3.4,8.2,8.6,8.2h129.5
	c13.7,0,24.9-10.6,24.9-22.8c0-30.2-25.7-53.8-57.4-53.8h-2.6V699.3v-1.6c14.6-9.8,26.6-22.8,35.2-37.5
	c2.6,18.8,18.9,33.4,39.4,33.4h3.4c21.4,0,39.4-17.1,39.4-37.5v-5.7V634V510.2C1487.6,442.5,1453.3,370.8,1357.3,369.2"/>
<g>
	<path class="st2" d="M103.2,152.1c0-22.6,13.8-37.7,34.5-37.7c7.9,0,15.8,1.9,20.3,4.8v15.9c-3.7-2.2-9.7-3.7-15.1-3.7
		c-11,0-18.4,8.4-18.4,20.9c0,12.7,7.6,21.1,18.9,21.1c5,0,11.2-1.9,15.4-4.7v16.4c-4.9,3.2-13.3,5.3-20.9,5.3
		C117.1,190.4,103.2,175.1,103.2,152.1z"/>
	<path class="st2" d="M164.4,161.9c0-17.1,11.2-28.5,27.9-28.5c16.6,0,27.7,11.4,27.7,28.5s-11.1,28.5-27.7,28.5
		C175.6,190.4,164.4,179,164.4,161.9z M199.4,161.9c0-6.8-2.8-11.4-7.2-11.4c-4.3,0-7.2,4.6-7.2,11.4s2.9,11.4,7.2,11.4
		C196.6,173.3,199.4,168.7,199.4,161.9z"/>
	<path class="st2" d="M308.8,154v35.4h-20v-32.5c0-4.2-1.6-6.4-4.6-6.4c-3.6,0-5.9,4.1-5.9,10.4v28.5h-20v-32.5
		c0-4.2-1.6-6.4-4.6-6.4c-3.6,0-5.9,4.1-5.9,10.4v28.5h-20v-55h16.3l1.9,8.3c4.2-6.4,10.5-9.3,16-9.3c6.6,0,11.3,2.7,13.9,8.1
		c4.5-5.6,11-8.1,16.6-8.1C303.2,133.4,308.8,140.5,308.8,154z"/>
	<path class="st2" d="M316.3,161.9c0-17.1,11.2-28.5,27.9-28.5c16.6,0,27.7,11.4,27.7,28.5s-11.1,28.5-27.7,28.5
		C327.5,190.4,316.3,179,316.3,161.9z M351.3,161.9c0-6.8-2.8-11.4-7.2-11.4c-4.3,0-7.2,4.6-7.2,11.4s2.9,11.4,7.2,11.4
		C348.5,173.3,351.3,168.7,351.3,161.9z"/>
</g>
<g>
	<path class="st2" d="M158.2,219.4v78h-16.1l-1.8-7.7c-3.6,5.6-8.9,8.7-16,8.7c-12.8,0-21.3-11.3-21.3-28.2
		c0-17.3,8.5-28.8,21.3-28.8c5.8,0,10.4,2.2,13.9,6v-28L158.2,219.4L158.2,219.4z M138.2,269.9c0-6.8-3-11.4-7.4-11.4
		c-4.3,0-7.2,4.6-7.2,11.5c0,6.8,2.9,11.3,7.2,11.3C135.2,281.3,138.2,276.7,138.2,269.9z"/>
	<path class="st2" d="M168.1,219.4h20.4v18h-20.4V219.4z M168.4,242.4h20v55h-20V242.4z"/>
	<path class="st2" d="M193.3,242.4h20.8l8.7,33.4l8.6-33.4h20.8l-19.5,55h-19.8L193.3,242.4z"/>
	<path class="st2" d="M308.3,242.4v55H292l-1.9-8.4c-4.3,6.5-10.9,9.4-16.5,9.4c-11.1,0-16.8-7.4-16.8-21.6v-34.4h20v31.5
		c0,4.9,1.7,7.4,5.1,7.4c3.9,0,6.4-4.1,6.4-10.4v-28.5H308.3z"/>
	<path class="st2" d="M318.5,219.4h20v78h-20V219.4z"/>
	<path class="st2" d="M405.3,299.4c0,12.6-12.9,21-32.3,21c-17,0-28.4-6.5-28.4-16.3c0-3.6,2.4-7.2,6.2-9.7
		c-2.6-2.1-4.2-5.4-4.2-9.3c0-4.7,2.6-9.5,6.7-13.2c-3.3-3-5.2-6.8-5.2-11.3c0-11.5,10.4-19.2,25.9-19.2c2.6,0,5.2,0.3,7.7,0.9
		l8.8-8.8l13.4,13.4l-5.4,5.3c2.1,2.6,3.3,5.5,3.3,8.4c0,10.7-10.7,17.8-26.8,17.8c-3.6,0-7-0.4-10.1-1.1c-1.1,0.7-1.7,1.7-1.7,2.6
		c0,1.4,1.1,2.4,2.7,2.4h20.3C397.7,282.3,405.3,289.1,405.3,299.4z M386.2,300.3c0-1.7-1.4-2.9-3.5-2.9h-17.5
		c-2.1,0-3.5,1.2-3.5,2.9c0,2.8,4.9,4.7,12.3,4.7C381.3,305,386.2,303.1,386.2,300.3z M368.7,260.6c0,3.2,2.5,5.4,6.2,5.4
		s6.2-2.2,6.2-5.4c0-3.2-2.5-5.4-6.2-5.4C371.2,255.2,368.7,257.4,368.7,260.6z"/>
	<path class="st2" d="M459.4,262.9v34.5h-16.3l-1.7-7.5c-3.3,5.3-9.2,8.5-16.5,8.5c-10.8,0-16.3-5.5-16.3-16.1
		c0-10.4,9-17.1,22.4-17.1h8.4c-0.1-4.8-3.7-7.2-10.3-7.2c-5.8,0-11.1,1.1-15.9,3.3V245c5.4-2.4,11.8-3.6,19.1-3.6
		C450.4,241.4,459.4,248.8,459.4,262.9z M439.4,275.6v-0.1h-4.7c-3.3,0-5.5,1.8-5.5,4.4c0,2.9,1.2,4.4,3.5,4.4
		C437.1,284.3,439.4,281.3,439.4,275.6z"/>
	<path class="st2" d="M507.5,241.4v19.1H502c-7.9,0-12.9,4.5-12.9,11.4v25.5h-20v-55h16.3l2.1,9.2c4.4-7,11.1-10.2,16.8-10.2H507.5z
		"/>
</g>
<g>
	<path class="st2" d="M102.8,377.9c0-17.1,11.4-28.5,28.4-28.5c5.8,0,12.6,1.5,17.1,3.7v16.5c-4.1-1.9-9.4-3.1-13.2-3.1
		c-7,0-11.6,4.6-11.6,11.4s4.8,11.4,12.1,11.4c4.5,0,9.5-1,13.5-3v16.2c-4.2,2.3-11.5,3.9-18.2,3.9C114,406.4,102.8,395,102.8,377.9
		z"/>
	<path class="st2" d="M205.9,370.9v34.5h-16.3l-1.7-7.5c-3.3,5.3-9.2,8.5-16.5,8.5c-10.8,0-16.3-5.5-16.3-16.1
		c0-10.4,9-17.1,22.4-17.1h8.4c-0.1-4.8-3.7-7.2-10.3-7.2c-5.8,0-11.1,1.1-15.9,3.3V353c5.4-2.4,11.8-3.6,19.1-3.6
		C196.9,349.4,205.9,356.8,205.9,370.9z M185.9,383.6v-0.1h-4.7c-3.3,0-5.5,1.8-5.5,4.4c0,2.9,1.2,4.4,3.5,4.4
		C183.6,392.3,185.9,389.3,185.9,383.6z"/>
	<path class="st2" d="M253.9,349.4v19.1h-5.5c-7.9,0-12.9,4.5-12.9,11.4v25.5h-20v-55h16.3l2.1,9.2c4.4-7,11.1-10.2,16.8-10.2H253.9
		z"/>
	<path class="st2" d="M312.3,327.4v78h-16.1l-1.8-7.7c-3.6,5.6-8.9,8.7-16,8.7c-12.8,0-21.3-11.3-21.3-28.2
		c0-17.3,8.5-28.8,21.3-28.8c5.8,0,10.4,2.2,13.9,6v-28H312.3L312.3,327.4z M292.3,377.9c0-6.8-3-11.4-7.4-11.4
		c-4.3,0-7.2,4.6-7.2,11.5c0,6.8,2.9,11.3,7.2,11.3C289.3,389.3,292.3,384.7,292.3,377.9z"/>
	<path class="st2" d="M370.8,370.9v34.5h-16.3l-1.7-7.5c-3.3,5.3-9.2,8.5-16.5,8.5c-10.8,0-16.3-5.5-16.3-16.1
		c0-10.4,9-17.1,22.4-17.1h8.4c-0.1-4.8-3.7-7.2-10.3-7.2c-5.8,0-11.1,1.1-15.9,3.3V353c5.4-2.4,11.8-3.6,19.1-3.6
		C361.8,349.4,370.8,356.8,370.8,370.9z M354.1,346.7h-16.8l11.9-19.3H372L354.1,346.7z M350.8,383.6v-0.1h-4.7
		c-3.3,0-5.5,1.8-5.5,4.4c0,2.9,1.2,4.4,3.5,4.4C348.5,392.3,350.8,389.3,350.8,383.6z"/>
	<path class="st2" d="M435.7,378.2c0,16.9-8.5,28.2-21.3,28.2c-5.8,0-10.4-2.1-13.9-6v27h-20v-77h17l1.3,7.2
		c3.6-5.2,8.8-8.2,15.6-8.2C427.2,349.4,435.7,360.9,435.7,378.2z M415.1,378c0-6.9-2.9-11.5-7.2-11.5c-4.4,0-7.4,4.6-7.4,11.4
		s3,11.4,7.4,11.4C412.2,389.3,415.1,384.8,415.1,378z"/>
	<path class="st2" d="M443.6,327.4H464v18h-20.4V327.4z M443.8,350.4h20v55h-20V350.4z"/>
	<path class="st2" d="M471.7,377.9c0-17.1,11.2-28.5,27.9-28.5c16.6,0,27.7,11.4,27.7,28.5s-11.1,28.5-27.7,28.5
		C482.9,406.4,471.7,395,471.7,377.9z M506.7,377.9c0-6.8-2.8-11.4-7.2-11.4c-4.3,0-7.2,4.6-7.2,11.4s2.9,11.4,7.2,11.4
		C503.9,389.3,506.7,384.7,506.7,377.9z"/>
	<path class="st2" d="M535.9,403.1l-3-15.9c5,2.7,12.4,4.5,18.5,4.5c4.4,0,7.3-1.2,7.3-3.4c0-1.3-1.1-2.3-2.7-2.8l-9-2.9
		c-7.7-2.5-13.3-6.7-13.3-14.9c0-11,8.7-18.3,21.7-18.3c6.8,0,14.9,1.6,20.1,4v14.7c-4.5-2.3-11.2-3.9-16.9-3.9
		c-3,0-4.9,0.9-4.9,2.3c0,1.2,0.8,1.7,2.2,2.2l9.1,3c6.6,2.2,13.7,6.6,13.7,15c0,11.8-9.9,19.7-24.7,19.7
		C546.5,406.4,539.3,405.1,535.9,403.1z"/>
</g>
<g>
	<path class="st2" d="M154.1,490.4h-30.4c1.4,4.9,5.7,7.4,12.9,7.4c5.8,0,11.5-0.9,15.5-2.6l-3,16.2c-4.9,1.9-11.3,3-18.3,3
		c-16.8,0-28-11.1-28-27.7c0-17.6,11.3-29.3,28.2-29.3c13.9,0,23.1,10.9,23.1,27.3V490.4z M123.9,480.1h10.9c-0.2-4-1.7-6.1-4.8-6.1
		C126.9,474,124.8,476.1,123.9,480.1z"/>
	<path class="st2" d="M162.8,511.1l-3-15.9c5,2.7,12.4,4.5,18.5,4.5c4.4,0,7.3-1.2,7.3-3.4c0-1.3-1.1-2.3-2.7-2.8l-9-2.9
		c-7.7-2.5-13.3-6.7-13.3-14.9c0-11,8.7-18.3,21.7-18.3c6.8,0,14.9,1.6,20.1,4v14.7c-4.5-2.3-11.2-3.9-16.9-3.9
		c-3,0-4.9,0.9-4.9,2.3c0,1.2,0.8,1.7,2.2,2.2l9.1,3c6.6,2.2,13.7,6.6,13.7,15c0,11.8-9.9,19.7-24.7,19.7
		C173.4,514.4,166.1,513.1,162.8,511.1z"/>
	<path class="st2" d="M211,485.9c0-17.1,11.4-28.5,28.4-28.5c5.8,0,12.6,1.5,17.1,3.7v16.5c-4.1-1.9-9.4-3.1-13.2-3.1
		c-7,0-11.6,4.6-11.6,11.4s4.8,11.4,12.1,11.4c4.5,0,9.5-1,13.5-3v16.2c-4.2,2.3-11.5,3.9-18.2,3.9C222.2,514.4,211,503,211,485.9z"
		/>
	<path class="st2" d="M263.2,485.9c0-17.1,11.2-28.5,27.9-28.5c16.6,0,27.7,11.4,27.7,28.5s-11.1,28.5-27.7,28.5
		C274.4,514.4,263.2,503,263.2,485.9z M298.2,485.9c0-6.8-2.8-11.4-7.2-11.4c-4.3,0-7.2,4.6-7.2,11.4s2.9,11.4,7.2,11.4
		C295.4,497.3,298.2,492.7,298.2,485.9z"/>
	<path class="st2" d="M326.7,435.4h20v78h-20V435.4z"/>
	<path class="st2" d="M405.2,478.9v34.5h-16.3l-1.7-7.5c-3.3,5.3-9.2,8.5-16.5,8.5c-10.8,0-16.3-5.5-16.3-16.1
		c0-10.4,9-17.1,22.4-17.1h8.4c-0.1-4.8-3.7-7.2-10.3-7.2c-5.8,0-11.1,1.1-15.9,3.3V461c5.4-2.4,11.8-3.6,19.1-3.6
		C396.2,457.4,405.2,464.8,405.2,478.9z M385.2,491.6v-0.1h-4.7c-3.3,0-5.5,1.8-5.5,4.4c0,2.9,1.2,4.4,3.5,4.4
		C382.9,500.3,385.2,497.3,385.2,491.6z"/>
	<path class="st2" d="M453.3,457.4v19.1h-5.5c-7.9,0-12.9,4.5-12.9,11.4v25.5h-20v-55h16.3l2.1,9.2c4.4-7,11.1-10.2,16.8-10.2
		L453.3,457.4L453.3,457.4z"/>
	<path class="st2" d="M507.5,490.4h-30.4c1.4,4.9,5.7,7.4,12.9,7.4c5.8,0,11.5-0.9,15.5-2.6l-3,16.2c-4.9,1.9-11.3,3-18.3,3
		c-16.8,0-28-11.1-28-27.7c0-17.6,11.3-29.3,28.2-29.3c13.9,0,23.1,10.9,23.1,27.3L507.5,490.4L507.5,490.4z M477.3,480.1h10.9
		c-0.2-4-1.7-6.1-4.8-6.1C480.3,474,478.2,476.1,477.3,480.1z"/>
	<path class="st2" d="M516.2,511.1l-3-15.9c5,2.7,12.4,4.5,18.5,4.5c4.4,0,7.3-1.2,7.3-3.4c0-1.3-1.1-2.3-2.7-2.8l-9-2.9
		c-7.7-2.5-13.3-6.7-13.3-14.9c0-11,8.7-18.3,21.7-18.3c6.8,0,14.9,1.6,20.1,4v14.7c-4.5-2.3-11.2-3.9-16.9-3.9
		c-3,0-4.9,0.9-4.9,2.3c0,1.2,0.8,1.7,2.2,2.2l9.1,3c6.6,2.2,13.7,6.6,13.7,15c0,11.8-9.9,19.7-24.7,19.7
		C526.8,514.4,519.6,513.1,516.2,511.1z"/>
</g>
<g>
	<path class="st2" d="M158.2,543.4v78h-16.1l-1.8-7.7c-3.6,5.6-8.9,8.7-16,8.7c-12.8,0-21.3-11.3-21.3-28.2
		c0-17.3,8.5-28.8,21.3-28.8c5.8,0,10.4,2.2,13.9,6v-28H158.2L158.2,543.4z M138.2,593.9c0-6.8-3-11.4-7.4-11.4
		c-4.3,0-7.2,4.6-7.2,11.5c0,6.8,2.9,11.3,7.2,11.3C135.2,605.3,138.2,600.7,138.2,593.9z"/>
	<path class="st2" d="M217.4,598.4H187c1.4,4.9,5.7,7.4,12.9,7.4c5.8,0,11.5-0.9,15.5-2.6l-3,16.2c-4.9,1.9-11.3,3-18.3,3
		c-16.8,0-28-11.1-28-27.7c0-17.6,11.3-29.3,28.2-29.3c13.9,0,23.1,10.9,23.1,27.3V598.4z M187.1,588.1H198c-0.2-4-1.7-6.1-4.8-6.1
		C190.1,582,188.1,584.1,187.1,588.1z"/>
	<path class="st2" d="M271.3,566.4h11.3v16.3h-11.3v38.7h-20v-38.7H244v-16.3h7.3v-4.9c0-11.5,7.1-19.1,17.6-19.1
		c4.4,0,9.2,0.5,12.4,1.8l3,16.2c-2.2-0.6-4.4-0.9-7.2-0.9c-3.5,0-5.8,2-5.8,5.1V566.4z"/>
	<path class="st2" d="M285.5,593.9c0-17.1,11.2-28.5,27.9-28.5c16.6,0,27.7,11.4,27.7,28.5s-11.1,28.5-27.7,28.5
		C296.7,622.4,285.5,611,285.5,593.9z M320.5,593.9c0-6.8-2.8-11.4-7.2-11.4c-4.3,0-7.2,4.6-7.2,11.4s2.9,11.4,7.2,11.4
		C317.7,605.3,320.5,600.7,320.5,593.9z"/>
	<path class="st2" d="M387.4,565.4v19.1h-5.5c-7.9,0-12.9,4.5-12.9,11.4v25.5h-20v-55h16.3l2.1,9.2c4.4-7,11.1-10.2,16.8-10.2H387.4
		z"/>
	<path class="st2" d="M474.9,586v35.4h-20v-32.5c0-4.2-1.6-6.4-4.6-6.4c-3.6,0-5.9,4.1-5.9,10.4v28.5h-20v-32.5
		c0-4.2-1.6-6.4-4.6-6.4c-3.6,0-5.9,4.1-5.9,10.4v28.5h-20v-55h16.3l1.9,8.3c4.2-6.4,10.5-9.3,16-9.3c6.6,0,11.3,2.7,13.9,8.1
		c4.5-5.6,11-8.1,16.6-8.1C469.3,565.4,474.9,572.5,474.9,586z"/>
	<path class="st2" d="M533,586.9v34.5h-16.3l-1.7-7.5c-3.3,5.3-9.2,8.5-16.5,8.5c-10.8,0-16.3-5.5-16.3-16.1
		c0-10.4,9-17.1,22.4-17.1h8.4c-0.1-4.8-3.7-7.2-10.3-7.2c-5.8,0-11.1,1.1-15.9,3.3V569c5.4-2.4,11.8-3.6,19.1-3.6
		C524,565.4,533,572.8,533,586.9z M513,599.6L513,599.6l-4.7-0.1c-3.3,0-5.5,1.8-5.5,4.4c0,2.9,1.2,4.4,3.5,4.4
		C510.7,608.3,513,605.3,513,599.6z"/>
</g>
<g>
	<path class="st2" d="M102.8,701.9c0-17.1,11.4-28.5,28.4-28.5c5.8,0,12.6,1.5,17.1,3.7v16.5c-4.1-1.9-9.4-3.1-13.2-3.1
		c-7,0-11.6,4.6-11.6,11.4s4.8,11.4,12.1,11.4c4.5,0,9.5-1,13.5-3v16.2c-4.2,2.3-11.5,3.9-18.2,3.9C114,730.4,102.8,719,102.8,701.9
		z"/>
	<path class="st2" d="M154.9,701.9c0-17.1,11.2-28.5,27.9-28.5c16.6,0,27.7,11.4,27.7,28.5s-11.1,28.5-27.7,28.5
		C166.1,730.4,154.9,719,154.9,701.9z M189.9,701.9c0-6.8-2.8-11.4-7.2-11.4c-4.3,0-7.2,4.6-7.2,11.4s2.9,11.4,7.2,11.4
		C187.1,713.3,189.9,708.7,189.9,701.9z"/>
	<path class="st2" d="M218.4,651.4h20v78h-20V651.4z"/>
	<path class="st2" d="M296.9,694.9v34.5h-16.3l-1.7-7.5c-3.3,5.3-9.2,8.5-16.5,8.5c-10.8,0-16.3-5.5-16.3-16.1
		c0-10.4,9-17.1,22.4-17.1h8.4c-0.1-4.8-3.7-7.2-10.3-7.2c-5.8,0-11.1,1.1-15.9,3.3V677c5.4-2.4,11.8-3.6,19.1-3.6
		C287.9,673.4,296.9,680.8,296.9,694.9z M276.9,707.6L276.9,707.6l-4.7-0.1c-3.3,0-5.5,1.8-5.5,4.4c0,2.9,1.2,4.4,3.5,4.4
		C274.6,716.3,276.9,713.3,276.9,707.6z"/>
	<path class="st2" d="M361.8,702.2c0,16.9-8.5,28.2-21.3,28.2c-7,0-12.3-3.1-15.9-8.6l-1.7,7.6h-16.3v-78h20v28
		c3.5-3.8,8.1-6,13.9-6C353.3,673.4,361.8,684.9,361.8,702.2z M341.2,702c0-6.9-2.9-11.5-7.2-11.5c-4.4,0-7.4,4.6-7.4,11.4
		s3,11.4,7.4,11.4C338.3,713.3,341.2,708.8,341.2,702z"/>
	<path class="st2" d="M367.6,701.9c0-17.1,11.2-28.5,27.9-28.5c16.6,0,27.7,11.4,27.7,28.5s-11.1,28.5-27.7,28.5
		C378.8,730.4,367.6,719,367.6,701.9z M402.6,701.9c0-6.8-2.8-11.4-7.2-11.4c-4.3,0-7.2,4.6-7.2,11.4s2.9,11.4,7.2,11.4
		C399.8,713.3,402.6,708.7,402.6,701.9z"/>
	<path class="st2" d="M469.5,673.4v19.1H464c-7.9,0-12.9,4.5-12.9,11.4v25.5h-20v-55h16.3l2.1,9.2c4.4-7,11.1-10.2,16.8-10.2H469.5z
		"/>
	<path class="st2" d="M523.2,694.9v34.5h-16.3l-1.7-7.5c-3.3,5.3-9.2,8.5-16.5,8.5c-10.8,0-16.3-5.5-16.3-16.1
		c0-10.4,9-17.1,22.4-17.1h8.4c-0.1-4.8-3.7-7.2-10.3-7.2c-5.8,0-11.1,1.1-15.9,3.3V677c5.4-2.4,11.8-3.6,19.1-3.6
		C514.2,673.4,523.2,680.8,523.2,694.9z M503.2,707.6L503.2,707.6l-4.7-0.1c-3.3,0-5.5,1.8-5.5,4.4c0,2.9,1.2,4.4,3.5,4.4
		C500.9,716.3,503.2,713.3,503.2,707.6z"/>
	<path class="st2" d="M572.6,711.6l-3,16.3c-3.4,1.5-8.8,2.5-13.5,2.5c-11.2,0-18.7-7.3-18.7-18.3v-21.4h-8.6v-16.3h9.7l2.4-12.6
		h16.5v12.6h14.5v16.3h-14.5v17.2c0,3.2,2.1,5.4,5.3,5.4C566.2,713.3,569.8,712.7,572.6,711.6z"/>
	<path class="st2" d="M579.4,651.4h20.4v18h-20.4V651.4z M579.6,674.4h20v55h-20V674.4z"/>
	<path class="st2" d="M604.6,674.4h20.8l8.7,33.4l8.6-33.4h20.8l-19.5,55h-19.8L604.6,674.4z"/>
	<path class="st2" d="M715.3,694.9v34.5H699l-1.7-7.5c-3.3,5.3-9.2,8.5-16.5,8.5c-10.8,0-16.3-5.5-16.3-16.1
		c0-10.4,9-17.1,22.4-17.1h8.4c-0.1-4.8-3.7-7.2-10.3-7.2c-5.8,0-11.1,1.1-15.9,3.3V677c5.4-2.4,11.8-3.6,19.1-3.6
		C706.3,673.4,715.3,680.8,715.3,694.9z M695.3,707.6L695.3,707.6l-4.7-0.1c-3.3,0-5.5,1.8-5.5,4.4c0,2.9,1.2,4.4,3.5,4.4
		C693,716.3,695.3,713.3,695.3,707.6z"/>
	<path class="st2" d="M790.1,706.4h-30.4c1.4,4.9,5.7,7.4,12.9,7.4c5.8,0,11.5-0.9,15.5-2.6l-3,16.2c-4.9,1.9-11.3,3-18.3,3
		c-16.8,0-28-11.1-28-27.7c0-17.6,11.3-29.3,28.2-29.3c13.9,0,23.1,10.9,23.1,27.3V706.4z M760,696.1h10.9c-0.2-4-1.7-6.1-4.8-6.1
		C763,690,760.8,692.1,760,696.1z"/>
</g>
<g>
	<path class="st2" d="M145.4,819.6l-3,16.3c-3.4,1.5-8.8,2.5-13.5,2.5c-11.2,0-18.7-7.3-18.7-18.3v-21.4h-8.6v-16.3h9.7l2.4-12.6
		h16.5v12.6h14.5v16.3h-14.5v17.2c0,3.2,2.1,5.4,5.3,5.4C139,821.3,142.6,820.7,145.4,819.6z"/>
	<path class="st2" d="M190.8,781.4v19.1h-5.5c-7.9,0-12.9,4.5-12.9,11.4v25.5h-20v-55h16.3l2.1,9.2c4.4-7,11.1-10.2,16.8-10.2H190.8
		z"/>
	<path class="st2" d="M244.4,802.9v34.5h-16.3l-1.7-7.5c-3.3,5.3-9.2,8.5-16.5,8.5c-10.8,0-16.3-5.5-16.3-16.1
		c0-10.4,9-17.1,22.4-17.1h8.4c-0.1-4.8-3.7-7.2-10.3-7.2c-5.8,0-11.1,1.1-15.9,3.3V785c5.4-2.4,11.8-3.6,19.1-3.6
		C235.4,781.4,244.4,788.8,244.4,802.9z M224.4,815.6L224.4,815.6l-4.7-0.1c-3.3,0-5.5,1.8-5.5,4.4c0,2.9,1.2,4.4,3.5,4.4
		C222.1,824.3,224.4,821.3,224.4,815.6z"/>
	<path class="st2" d="M306.6,803v34.4h-20v-31.5c0-4.9-1.9-7.4-5.6-7.4c-4.2,0-6.9,4.1-6.9,10.4v28.5h-20v-55h16.3l1.9,8.5
		c4.5-6.5,11.2-9.5,17-9.5C300.7,781.4,306.6,788.8,306.6,803z"/>
	<path class="st2" d="M317.1,835.1l-3-15.9c5,2.7,12.4,4.5,18.5,4.5c4.4,0,7.3-1.2,7.3-3.4c0-1.3-1.1-2.3-2.7-2.8l-9-2.9
		c-7.7-2.5-13.3-6.7-13.3-14.9c0-11,8.7-18.3,21.7-18.3c6.8,0,14.9,1.6,20.1,4v14.7c-4.5-2.3-11.2-3.9-16.9-3.9
		c-3,0-4.9,0.9-4.9,2.3c0,1.2,0.8,1.7,2.2,2.2l9.1,3c6.6,2.2,13.7,6.6,13.7,15c0,11.8-9.9,19.7-24.7,19.7
		C327.7,838.4,320.5,837.1,317.1,835.1z"/>
	<path class="st2" d="M422.9,810.2c0,16.9-8.5,28.2-21.3,28.2c-5.8,0-10.4-2.1-13.9-6v27h-20v-77h17l1.3,7.2
		c3.6-5.2,8.8-8.2,15.6-8.2C414.4,781.4,422.9,792.9,422.9,810.2z M402.3,810c0-6.9-2.9-11.5-7.2-11.5c-4.4,0-7.4,4.6-7.4,11.4
		s3,11.4,7.4,11.4C399.4,821.3,402.3,816.8,402.3,810z"/>
	<path class="st2" d="M479.3,802.9v34.5H463l-1.7-7.5c-3.3,5.3-9.2,8.5-16.5,8.5c-10.8,0-16.3-5.5-16.3-16.1
		c0-10.4,9-17.1,22.4-17.1h8.4c-0.1-4.8-3.7-7.2-10.3-7.2c-5.8,0-11.1,1.1-15.9,3.3V785c5.4-2.4,11.8-3.6,19.1-3.6
		C470.3,781.4,479.3,788.8,479.3,802.9z M459.3,815.6L459.3,815.6l-4.7-0.1c-3.3,0-5.5,1.8-5.5,4.4c0,2.9,1.2,4.4,3.5,4.4
		C457,824.3,459.3,821.3,459.3,815.6z"/>
	<path class="st2" d="M527.4,781.4v19.1h-5.5c-7.9,0-12.9,4.5-12.9,11.4v25.5h-20v-55h16.3l2.1,9.2c4.4-7,11.1-10.2,16.8-10.2H527.4
		z"/>
	<path class="st2" d="M581.6,814.4h-30.4c1.4,4.9,5.7,7.4,12.9,7.4c5.8,0,11.5-0.9,15.5-2.6l-3,16.2c-4.9,1.9-11.3,3-18.3,3
		c-16.8,0-28-11.1-28-27.7c0-17.6,11.3-29.3,28.2-29.3c13.9,0,23.1,10.9,23.1,27.3V814.4z M551.4,804.1h10.9c-0.2-4-1.7-6.1-4.8-6.1
		C554.4,798,552.3,800.1,551.4,804.1z"/>
	<path class="st2" d="M642.1,803v34.4h-20v-31.5c0-4.9-1.9-7.4-5.6-7.4c-4.2,0-6.9,4.1-6.9,10.4v28.5h-20v-55h16.3l1.9,8.5
		c4.5-6.5,11.2-9.5,17-9.5C636.2,781.4,642.1,788.8,642.1,803z"/>
	<path class="st2" d="M691.8,819.6l-3,16.3c-3.4,1.5-8.8,2.5-13.5,2.5c-11.2,0-18.7-7.3-18.7-18.3v-21.4H648v-16.3h9.7l2.4-12.6
		h16.5v12.6h14.5v16.3h-14.5v17.2c0,3.2,2.1,5.4,5.3,5.4C685.4,821.3,689,820.7,691.8,819.6z"/>
	<path class="st2" d="M747.3,814.4h-30.4c1.4,4.9,5.7,7.4,12.9,7.4c5.8,0,11.5-0.9,15.5-2.6l-3,16.2c-4.9,1.9-11.3,3-18.3,3
		c-16.8,0-28-11.1-28-27.7c0-17.6,11.3-29.3,28.2-29.3c13.9,0,23.1,10.9,23.1,27.3V814.4z M717.2,804.1h10.9c-0.2-4-1.7-6.1-4.8-6.1
		C720.2,798,718,800.1,717.2,804.1z"/>
</g>
<path class="st1" d="M1685.5,149.1c0,90.1-74.8,163.1-167,163.1s-167-73-167-163.1S1426.2-14,1518.4-14S1685.5,59,1685.5,149.1"/>
<path class="st0" d="M1451.6,101.7c1.9,1.4,4.5,1.2,6.2-0.4l4.6-4.4c1.7-1.6,1.9-4.2,0.4-6.1c-3.3-4.2-6.7-8.8-9.7-12.9
	c4.3,2.9,9,6.3,13.3,9.4c1.9,1.4,4.6,1.2,6.2-0.4l4.6-4.5c1.7-1.6,1.9-4.2,0.4-6.1l-1.3-1.7c1.3,1,2.5,2.1,3.7,3.3
	c9.1,8.9,14.3,20.2,13.1,29.1c-0.4,1.6,0.3,3.6,1.6,4.7l17.7,16.1l-4.1,3.7l-4.3,3.9l-16.5-17.2c-0.9-0.9-2.2-1.5-3.5-1.5
	c-0.3,0-0.6,0-0.8,0.1c-8.7,1.5-20.8-3.6-30.1-12.7c-1.3-1.2-2.4-2.5-3.6-3.8L1451.6,101.7z M1544.2,111.4c1.2-1.2,1.7-2.5,1.3-4.1
	c0-0.2,0-0.4-0.1-0.6c-1.2-8.5,3.9-19.8,13.1-28.7c2.4-2.4,5-4.4,7.6-6.2c6.7-4.5,13.6-6.8,19.3-6.8c4,0,7.3,1.1,9.7,3.4
	c2.9,2.8,3.5,6.7,3.5,9.4c0,8.3-5.1,18.3-13.3,26.3c-9.3,9.1-21.4,14.2-30.1,12.7c-1.6-0.3-3.2,0.3-4.3,1.4l-19.7,20.5l0,0l-7.2,7.5
	l-43,44.8c-3.1,3.2-8.8,3.3-11.9,0.2c-1.6-1.6-2.5-3.6-2.4-5.9c0-2.2,1-4.3,2.7-5.8l37.6-34.2c0,0,0,0,0.1,0l9.7-8.9L1544.2,111.4z
	 M1569.2,179.6c1.7,1.5,2.6,3.6,2.6,5.8c0,2.1-0.7,4.1-2.2,5.6c-0.1,0.1-0.2,0.2-0.3,0.3c-1.6,1.6-3.8,2.3-6,2.4
	c-2.3,0-4.4-0.9-5.9-2.6l-31.7-33l3.2-3.4l6-6.2L1569.2,179.6z M1446.4,110.7c10.9,10.6,24.3,16.4,35.9,15.6l14.8,15.4l-34.1,31.1
	c-3.6,3.2-5.6,7.6-5.7,12.4c-0.1,4.7,1.8,9.2,5.2,12.6c3.3,3.2,7.9,5.1,12.6,5.1c4.9,0,9.6-2,13-5.5l31.2-32.5l31.2,32.6
	c3.3,3.5,7.8,5.4,12.7,5.5c0.1,0,0.2,0,0.3,0c4.6,0,8.9-1.7,12.2-4.7c0.1-0.1,0.3-0.2,0.4-0.4c3.4-3.4,5.3-7.8,5.2-12.6
	c-0.1-4.8-2.1-9.2-5.7-12.4l-34.2-31.1l14.8-15.4c11.4,0.8,24.9-4.9,35.9-15.6c10.1-9.8,16.1-22.1,16-32.9c0-6.5-2.2-12-6.3-16
	c-9.2-9-25.7-8-41.1,2.3c-3.1,2-6.1,4.5-9,7.3c-10.9,10.6-16.9,23.8-16,35l-16.6,15.1l-16.6-15.1c0.8-11.2-5.2-24.4-15.9-34.9
	c-2.3-2.2-4.7-4.2-7.2-6c-5.8-4.2-12.2-7.2-18.3-8.7c-1.9-0.5-4,0.3-5.1,2c-1.1,1.6-1,3.8,0.2,5.3l7.6,10
	c-23-16.4-24.7-14.7-27.3-12.2c-2.6,2.6-4.3,4.2,12.4,26.5l-10.2-7.4c-1.6-1.2-3.8-1.2-5.4-0.2c-1.7,1.1-2.5,3-2,4.9
	C1433.5,94.3,1438.8,103.2,1446.4,110.7"/>
<path class="st3" d="M1596.6,244.2h-104v-9h104V244.2z M1611.9,244.2h-10.5v-9h10.5V244.2z M1427.6,232.5h60.2v14.4h-60.2V232.5z
	 M1435.2,221.1v6.9h-10c-1.3,0-2.4,1-2.4,2.3v19c0,1.3,1.1,2.3,2.4,2.3h65c1.3,0,2.4-1,2.4-2.3v-0.4h121.7c1.3,0,2.4-1,2.4-2.3V233
	c0-1.3-1.1-2.3-2.4-2.3h-121.7v-0.4c0-1.3-1.1-2.3-2.4-2.3H1440v-4.6h64.3c1.3,0,2.4-1,2.4-2.3s-1.1-2.3-2.4-2.3h-66.8
	C1436.3,218.8,1435.2,219.8,1435.2,221.1"/>
<path class="st0" d="M1596.6,244.2h-104v-9h104V244.2z M1611.9,244.2h-10.5v-9h10.5V244.2z M1427.6,232.5h60.2v14.4h-60.2V232.5z
	 M1435.2,221.1v6.9h-10c-1.3,0-2.4,1-2.4,2.3v19c0,1.3,1.1,2.3,2.4,2.3h65c1.3,0,2.4-1,2.4-2.3v-0.4h121.7c1.3,0,2.4-1,2.4-2.3V233
	c0-1.3-1.1-2.3-2.4-2.3h-121.7v-0.4c0-1.3-1.1-2.3-2.4-2.3H1440v-4.6h64.3c1.3,0,2.4-1,2.4-2.3s-1.1-2.3-2.4-2.3h-66.8
	C1436.3,218.8,1435.2,219.8,1435.2,221.1z"/>
<polygon class="st1" points="1385.2,217.2 1356.3,276.7 1427.7,268.2 "/>
</svg>
