<?xml version="1.0" encoding="utf-8"?>
<!-- Generator: Adobe Illustrator 23.0.1, SVG Export Plug-In . SVG Version: 6.00 Build 0)  -->
<svg version="1.1" id="Camada_1" xmlns="http://www.w3.org/2000/svg" xmlns:xlink="http://www.w3.org/1999/xlink" x="0px" y="0px"
	 viewBox="0 0 1662 942.57" style="enable-background:new 0 0 1662 942.57;" xml:space="preserve">
<style type="text/css">
	.st0{fill:#EDEDED;}
	.st1{fill:#90268B;}
	.st2{fill:#F6921E;}
	.st3{fill:none;stroke:#FFFFFF;stroke-width:5.5869;}
	.st4{fill:#EDEDED;stroke:#90268B;stroke-width:25;stroke-miterlimit:10;}
</style>
<rect class="st0" width="1662" height="942.57"/>
<g>
	<path class="st2" d="M78.84,182.72c0-20.34,12.42-33.93,31.05-33.93c7.11,0,14.22,1.71,18.27,4.32v14.31
		c-3.33-1.98-8.73-3.33-13.59-3.33c-9.9,0-16.56,7.56-16.56,18.81c0,11.43,6.84,18.99,17.01,18.99c4.5,0,10.08-1.71,13.86-4.23
		v14.76c-4.41,2.88-11.97,4.77-18.81,4.77C91.35,217.19,78.84,203.42,78.84,182.72z"/>
	<path class="st2" d="M133.92,191.54c0-15.39,10.08-25.65,25.11-25.65c14.94,0,24.93,10.26,24.93,25.65
		c0,15.39-9.99,25.65-24.93,25.65C144,217.19,133.92,206.93,133.92,191.54z M165.42,191.54c0-6.12-2.52-10.26-6.48-10.26
		c-3.87,0-6.48,4.14-6.48,10.26s2.61,10.26,6.48,10.26C162.9,201.8,165.42,197.66,165.42,191.54z"/>
	<path class="st2" d="M263.97,184.43v31.86h-18v-29.25c0-3.78-1.44-5.76-4.14-5.76c-3.24,0-5.31,3.69-5.31,9.36v25.65h-18v-29.25
		c0-3.78-1.44-5.76-4.14-5.76c-3.24,0-5.31,3.69-5.31,9.36v25.65h-18v-49.5h14.67l1.71,7.47c3.78-5.76,9.45-8.37,14.4-8.37
		c5.94,0,10.17,2.43,12.51,7.29c4.05-5.04,9.9-7.29,14.94-7.29C258.93,165.89,263.97,172.28,263.97,184.43z"/>
	<path class="st2" d="M270.72,191.54c0-15.39,10.08-25.65,25.11-25.65c14.94,0,24.93,10.26,24.93,25.65
		c0,15.39-9.99,25.65-24.93,25.65C280.8,217.19,270.72,206.93,270.72,191.54z M302.22,191.54c0-6.12-2.52-10.26-6.48-10.26
		c-3.87,0-6.48,4.14-6.48,10.26s2.61,10.26,6.48,10.26C299.7,201.8,302.22,197.66,302.22,191.54z"/>
</g>
<g>
	<path class="st2" d="M80.37,248.09h18.36v16.2H80.37V248.09z M80.55,268.79h18v49.5h-18V268.79z"/>
	<path class="st2" d="M180.63,286.43v31.86h-18v-29.25c0-3.78-1.44-5.76-4.14-5.76c-3.24,0-5.31,3.69-5.31,9.36v25.65h-18v-29.25
		c0-3.78-1.44-5.76-4.14-5.76c-3.24,0-5.31,3.69-5.31,9.36v25.65h-18v-49.5h14.67l1.71,7.47c3.78-5.76,9.45-8.37,14.4-8.37
		c5.94,0,10.17,2.43,12.51,7.29c4.05-5.04,9.9-7.29,14.94-7.29C175.59,267.89,180.63,274.28,180.63,286.43z"/>
	<path class="st2" d="M239.13,293.81c0,15.21-7.65,25.38-19.17,25.38c-5.22,0-9.36-1.89-12.51-5.4v24.3h-18v-69.3h15.3l1.17,6.48
		c3.24-4.68,7.92-7.38,14.04-7.38C231.48,267.89,239.13,278.24,239.13,293.81z M220.59,293.63c0-6.21-2.61-10.35-6.48-10.35
		c-3.96,0-6.66,4.14-6.66,10.26s2.7,10.26,6.66,10.26C217.98,303.8,220.59,299.75,220.59,293.63z"/>
	<path class="st2" d="M246.42,248.09h18v70.2h-18V248.09z"/>
	<path class="st2" d="M317.07,287.24v31.05H302.4l-1.53-6.75c-2.97,4.77-8.28,7.65-14.85,7.65c-9.72,0-14.67-4.95-14.67-14.49
		c0-9.36,8.1-15.39,20.16-15.39h7.56c-0.09-4.32-3.33-6.48-9.27-6.48c-5.22,0-9.99,0.99-14.31,2.97v-14.67
		c4.86-2.16,10.62-3.24,17.19-3.24C308.97,267.89,317.07,274.55,317.07,287.24z M299.07,298.67v-0.09h-4.23
		c-2.97,0-4.95,1.62-4.95,3.96c0,2.61,1.08,3.96,3.15,3.96C297,306.5,299.07,303.8,299.07,298.67z"/>
	<path class="st2" d="M373.04,287.33v30.96h-18v-28.35c0-4.41-1.71-6.66-5.04-6.66c-3.78,0-6.21,3.69-6.21,9.36v25.65h-18v-49.5
		h14.67l1.71,7.65c4.05-5.85,10.08-8.55,15.3-8.55C367.73,267.89,373.04,274.55,373.04,287.33z"/>
	<path class="st2" d="M417.68,302.27l-2.7,14.67c-3.06,1.35-7.92,2.25-12.15,2.25c-10.08,0-16.83-6.57-16.83-16.47v-19.26h-7.74
		v-14.67h8.73l2.16-11.34H404v11.34h13.05v14.67H404v15.48c0,2.88,1.89,4.86,4.77,4.86C411.92,303.8,415.16,303.26,417.68,302.27z"
		/>
	<path class="st2" d="M467.45,287.24v31.05h-14.67l-1.53-6.75c-2.97,4.77-8.28,7.65-14.85,7.65c-9.72,0-14.67-4.95-14.67-14.49
		c0-9.36,8.1-15.39,20.16-15.39h7.56c-0.09-4.32-3.33-6.48-9.27-6.48c-5.22,0-9.99,0.99-14.31,2.97v-14.67
		c4.86-2.16,10.62-3.24,17.19-3.24C459.35,267.89,467.45,274.55,467.45,287.24z M449.45,298.67v-0.09h-4.23
		c-2.97,0-4.95,1.62-4.95,3.96c0,2.61,1.08,3.96,3.15,3.96C447.38,306.5,449.45,303.8,449.45,298.67z"/>
	<path class="st2" d="M510.74,267.89v17.19h-4.95c-7.11,0-11.61,4.05-11.61,10.26v22.95h-18v-49.5h14.67l1.89,8.28
		c3.96-6.3,9.99-9.18,15.12-9.18H510.74z"/>
</g>
<g>
	<path class="st2" d="M124.65,399.59H97.29c1.26,4.41,5.13,6.66,11.61,6.66c5.22,0,10.35-0.81,13.95-2.34l-2.7,14.58
		c-4.41,1.71-10.17,2.7-16.47,2.7c-15.12,0-25.2-9.99-25.2-24.93c0-15.84,10.17-26.37,25.38-26.37c12.51,0,20.79,9.81,20.79,24.57
		V399.59z M97.47,390.32h9.81c-0.18-3.6-1.53-5.49-4.32-5.49C100.17,384.83,98.28,386.72,97.47,390.32z"/>
	<path class="st2" d="M132.48,418.22l-2.7-14.31c4.5,2.43,11.16,4.05,16.65,4.05c3.96,0,6.57-1.08,6.57-3.06
		c0-1.17-0.99-2.07-2.43-2.52l-8.1-2.61c-6.93-2.25-11.97-6.03-11.97-13.41c0-9.9,7.83-16.47,19.53-16.47
		c6.12,0,13.41,1.44,18.09,3.6v13.23c-4.05-2.07-10.08-3.51-15.21-3.51c-2.7,0-4.41,0.81-4.41,2.07c0,1.08,0.72,1.53,1.98,1.98
		l8.19,2.7c5.94,1.98,12.33,5.94,12.33,13.5c0,10.62-8.91,17.73-22.23,17.73C142.02,421.19,135.54,420.02,132.48,418.22z"/>
	<path class="st2" d="M213.93,404.27l-2.7,14.67c-3.06,1.35-7.92,2.25-12.15,2.25c-10.08,0-16.83-6.57-16.83-16.47v-19.26h-7.74
		v-14.67h8.73l2.16-11.34h14.85v11.34h13.05v14.67h-13.05v15.48c0,2.88,1.89,4.86,4.77,4.86
		C208.17,405.8,211.41,405.26,213.93,404.27z"/>
	<path class="st2" d="M263.7,389.24v31.05h-14.67l-1.53-6.75c-2.97,4.77-8.28,7.65-14.85,7.65c-9.72,0-14.67-4.95-14.67-14.49
		c0-9.36,8.1-15.39,20.16-15.39h7.56c-0.09-4.32-3.33-6.48-9.27-6.48c-5.22,0-9.99,0.99-14.31,2.97v-14.67
		c4.86-2.16,10.62-3.24,17.19-3.24C255.6,369.89,263.7,376.55,263.7,389.24z M245.7,400.67v-0.09h-4.23c-2.97,0-4.95,1.62-4.95,3.96
		c0,2.61,1.08,3.96,3.15,3.96C243.63,408.5,245.7,405.8,245.7,400.67z"/>
	<path class="st2" d="M270.36,395.54c0-15.39,10.26-25.65,25.56-25.65c5.22,0,11.34,1.35,15.39,3.33v14.85
		c-3.69-1.71-8.46-2.79-11.88-2.79c-6.3,0-10.44,4.14-10.44,10.26s4.32,10.26,10.89,10.26c4.05,0,8.55-0.9,12.15-2.7v14.58
		c-3.78,2.07-10.35,3.51-16.38,3.51C280.44,421.19,270.36,410.93,270.36,395.54z"/>
	<path class="st2" d="M319.5,350.09h18.36v16.2H319.5V350.09z M319.68,370.79h18v49.5h-18V370.79z"/>
	<path class="st2" d="M344.79,395.54c0-15.39,10.08-25.65,25.11-25.65c14.94,0,24.93,10.26,24.93,25.65
		c0,15.39-9.99,25.65-24.93,25.65C354.86,421.19,344.79,410.93,344.79,395.54z M376.28,395.54c0-6.12-2.52-10.26-6.48-10.26
		c-3.87,0-6.48,4.14-6.48,10.26s2.61,10.26,6.48,10.26C373.76,405.8,376.28,401.66,376.28,395.54z"/>
	<path class="st2" d="M449.18,389.33v30.96h-18v-28.35c0-4.41-1.71-6.66-5.04-6.66c-3.78,0-6.21,3.69-6.21,9.36v25.65h-18v-49.5
		h14.67l1.71,7.65c4.05-5.85,10.08-8.55,15.3-8.55C443.87,369.89,449.18,376.55,449.18,389.33z"/>
	<path class="st2" d="M501.47,389.24v31.05H486.8l-1.53-6.75c-2.97,4.77-8.28,7.65-14.85,7.65c-9.72,0-14.67-4.95-14.67-14.49
		c0-9.36,8.1-15.39,20.16-15.39h7.56c-0.09-4.32-3.33-6.48-9.27-6.48c-5.22,0-9.99,0.99-14.31,2.97v-14.67
		c4.86-2.16,10.62-3.24,17.19-3.24C493.37,369.89,501.47,376.55,501.47,389.24z M483.47,400.67v-0.09h-4.23
		c-2.97,0-4.95,1.62-4.95,3.96c0,2.61,1.08,3.96,3.15,3.96C481.4,408.5,483.47,405.8,483.47,400.67z"/>
	<path class="st2" d="M583.1,388.43v31.86h-18v-29.25c0-3.78-1.44-5.76-4.14-5.76c-3.24,0-5.31,3.69-5.31,9.36v25.65h-18v-29.25
		c0-3.78-1.44-5.76-4.14-5.76c-3.24,0-5.31,3.69-5.31,9.36v25.65h-18v-49.5h14.67l1.71,7.47c3.78-5.76,9.45-8.37,14.4-8.37
		c5.94,0,10.17,2.43,12.51,7.29c4.05-5.04,9.9-7.29,14.94-7.29C578.06,369.89,583.1,376.28,583.1,388.43z"/>
	<path class="st2" d="M636.02,399.59h-27.36c1.26,4.41,5.13,6.66,11.61,6.66c5.22,0,10.35-0.81,13.95-2.34l-2.7,14.58
		c-4.41,1.71-10.17,2.7-16.47,2.7c-15.12,0-25.2-9.99-25.2-24.93c0-15.84,10.17-26.37,25.38-26.37c12.51,0,20.79,9.81,20.79,24.57
		V399.59z M608.84,390.32h9.81c-0.18-3.6-1.53-5.49-4.32-5.49C611.54,384.83,609.65,386.72,608.84,390.32z"/>
	<path class="st2" d="M690.47,389.33v30.96h-18v-28.35c0-4.41-1.71-6.66-5.04-6.66c-3.78,0-6.21,3.69-6.21,9.36v25.65h-18v-49.5
		h14.67l1.71,7.65c4.05-5.85,10.08-8.55,15.3-8.55C685.16,369.89,690.47,376.55,690.47,389.33z"/>
	<path class="st2" d="M735.11,404.27l-2.7,14.67c-3.06,1.35-7.92,2.25-12.15,2.25c-10.08,0-16.83-6.57-16.83-16.47v-19.26h-7.74
		v-14.67h8.73l2.16-11.34h14.85v11.34h13.05v14.67h-13.05v15.48c0,2.88,1.89,4.86,4.77,4.86
		C729.35,405.8,732.59,405.26,735.11,404.27z"/>
	<path class="st2" d="M738.98,395.54c0-15.39,10.08-25.65,25.11-25.65c14.94,0,24.93,10.26,24.93,25.65
		c0,15.39-9.99,25.65-24.93,25.65C749.06,421.19,738.98,410.93,738.98,395.54z M770.48,395.54c0-6.12-2.52-10.26-6.48-10.26
		c-3.87,0-6.48,4.14-6.48,10.26s2.61,10.26,6.48,10.26C767.96,405.8,770.48,401.66,770.48,395.54z"/>
</g>
<g>
	<path class="st2" d="M115.11,471.89v17.19h-4.95c-7.11,0-11.61,4.05-11.61,10.26v22.95h-18v-49.5h14.67l1.89,8.28
		c3.96-6.3,9.99-9.18,15.12-9.18H115.11z"/>
	<path class="st2" d="M117.72,497.54c0-15.39,10.08-25.65,25.11-25.65c14.94,0,24.93,10.26,24.93,25.65
		c0,15.39-9.99,25.65-24.93,25.65C127.8,523.19,117.72,512.93,117.72,497.54z M149.22,497.54c0-6.12-2.52-10.26-6.48-10.26
		c-3.87,0-6.48,4.14-6.48,10.26s2.61,10.26,6.48,10.26C146.7,507.8,149.22,503.66,149.22,497.54z"/>
	<path class="st2" d="M210.33,506.27l-2.7,14.67c-3.06,1.35-7.92,2.25-12.15,2.25c-10.08,0-16.83-6.57-16.83-16.47v-19.26h-7.74
		v-14.67h8.73l2.16-11.34h14.85v11.34h13.05v14.67h-13.05v15.48c0,2.88,1.89,4.86,4.77,4.86
		C204.57,507.8,207.81,507.26,210.33,506.27z"/>
	<path class="st2" d="M260.1,491.24v31.05h-14.67l-1.53-6.75c-2.97,4.77-8.28,7.65-14.85,7.65c-9.72,0-14.67-4.95-14.67-14.49
		c0-9.36,8.1-15.39,20.16-15.39h7.56c-0.09-4.32-3.33-6.48-9.27-6.48c-5.22,0-9.99,0.99-14.31,2.97v-14.67
		c4.86-2.16,10.62-3.24,17.19-3.24C252,471.89,260.1,478.55,260.1,491.24z M242.1,502.67v-0.09h-4.23c-2.97,0-4.95,1.62-4.95,3.96
		c0,2.61,1.08,3.96,3.15,3.96C240.03,510.5,242.1,507.8,242.1,502.67z"/>
	<path class="st2" d="M304.56,506.27l-2.7,14.67c-3.06,1.35-7.92,2.25-12.15,2.25c-10.08,0-16.83-6.57-16.83-16.47v-19.26h-7.74
		v-14.67h8.73l2.16-11.34h14.85v11.34h13.05v14.67h-13.05v15.48c0,2.88,1.89,4.86,4.77,4.86
		C298.8,507.8,302.04,507.26,304.56,506.27z"/>
	<path class="st2" d="M310.68,452.09h18.36v16.2h-18.36V452.09z M310.86,472.79h18v49.5h-18V472.79z"/>
	<path class="st2" d="M333.36,472.79h18.72l7.83,30.06l7.74-30.06h18.72l-17.55,49.5H351L333.36,472.79z"/>
	<path class="st2" d="M387.09,497.54c0-15.39,10.08-25.65,25.11-25.65c14.94,0,24.93,10.26,24.93,25.65
		c0,15.39-9.99,25.65-24.93,25.65C397.17,523.19,387.09,512.93,387.09,497.54z M418.58,497.54c0-6.12-2.52-10.26-6.48-10.26
		c-3.87,0-6.48,4.14-6.48,10.26s2.61,10.26,6.48,10.26C416.06,507.8,418.58,503.66,418.58,497.54z"/>
	<path class="st2" d="M460.88,497.54c0-15.39,10.26-25.65,25.56-25.65c5.22,0,11.34,1.35,15.39,3.33v14.85
		c-3.69-1.71-8.46-2.79-11.88-2.79c-6.3,0-10.44,4.14-10.44,10.26s4.32,10.26,10.89,10.26c4.05,0,8.55-0.9,12.15-2.7v14.58
		c-3.78,2.07-10.35,3.51-16.38,3.51C470.96,523.19,460.88,512.93,460.88,497.54z"/>
	<path class="st2" d="M507.86,497.54c0-15.39,10.08-25.65,25.11-25.65c14.94,0,24.93,10.26,24.93,25.65
		c0,15.39-9.99,25.65-24.93,25.65C517.94,523.19,507.86,512.93,507.86,497.54z M539.36,497.54c0-6.12-2.52-10.26-6.48-10.26
		c-3.87,0-6.48,4.14-6.48,10.26s2.61,10.26,6.48,10.26C536.84,507.8,539.36,503.66,539.36,497.54z"/>
	<path class="st2" d="M637.91,490.43v31.86h-18v-29.25c0-3.78-1.44-5.76-4.14-5.76c-3.24,0-5.31,3.69-5.31,9.36v25.65h-18v-29.25
		c0-3.78-1.44-5.76-4.14-5.76c-3.24,0-5.31,3.69-5.31,9.36v25.65h-18v-49.5h14.67l1.71,7.47c3.78-5.76,9.45-8.37,14.4-8.37
		c5.94,0,10.17,2.43,12.51,7.29c4.05-5.04,9.9-7.29,14.94-7.29C632.87,471.89,637.91,478.28,637.91,490.43z"/>
</g>
<g>
	<path class="st2" d="M130.23,599.81c0,15.21-7.65,25.38-19.17,25.38c-5.22,0-9.36-1.89-12.51-5.4v24.3h-18v-69.3h15.3l1.17,6.48
		c3.24-4.68,7.92-7.38,14.04-7.38C122.58,573.89,130.23,584.24,130.23,599.81z M111.69,599.63c0-6.21-2.61-10.35-6.48-10.35
		c-3.96,0-6.66,4.14-6.66,10.26s2.7,10.26,6.66,10.26C109.08,609.8,111.69,605.75,111.69,599.63z"/>
	<path class="st2" d="M180.99,593.24v31.05h-14.67l-1.53-6.75c-2.97,4.77-8.28,7.65-14.85,7.65c-9.72,0-14.67-4.95-14.67-14.49
		c0-9.36,8.1-15.39,20.16-15.39h7.56c-0.09-4.32-3.33-6.48-9.27-6.48c-5.22,0-9.99,0.99-14.31,2.97v-14.67
		c4.86-2.16,10.62-3.24,17.19-3.24C172.89,573.89,180.99,580.55,180.99,593.24z M162.99,604.67v-0.09h-4.23
		c-2.97,0-4.95,1.62-4.95,3.96c0,2.61,1.08,3.96,3.15,3.96C160.92,612.5,162.99,609.8,162.99,604.67z"/>
	<path class="st2" d="M240.66,626.09c0,11.34-11.61,18.9-29.07,18.9c-15.3,0-25.56-5.85-25.56-14.67c0-3.24,2.16-6.48,5.58-8.73
		c-2.34-1.89-3.78-4.86-3.78-8.37c0-4.23,2.34-8.55,6.03-11.88c-2.97-2.7-4.68-6.12-4.68-10.17c0-10.35,9.36-17.28,23.31-17.28
		c2.34,0,4.68,0.27,6.93,0.81l7.92-7.92l12.06,12.06l-4.86,4.77c1.89,2.34,2.97,4.95,2.97,7.56c0,9.63-9.63,16.02-24.12,16.02
		c-3.24,0-6.3-0.36-9.09-0.99c-0.99,0.63-1.53,1.53-1.53,2.34c0,1.26,0.99,2.16,2.43,2.16h18.27
		C233.82,610.7,240.66,616.82,240.66,626.09z M223.47,626.9c0-1.53-1.26-2.61-3.15-2.61h-15.75c-1.89,0-3.15,1.08-3.15,2.61
		c0,2.52,4.41,4.23,11.07,4.23C219.06,631.13,223.47,629.42,223.47,626.9z M207.72,591.17c0,2.88,2.25,4.86,5.58,4.86
		c3.33,0,5.58-1.98,5.58-4.86s-2.25-4.86-5.58-4.86C209.97,586.31,207.72,588.29,207.72,591.17z"/>
	<path class="st2" d="M289.35,593.24v31.05h-14.67l-1.53-6.75c-2.97,4.77-8.28,7.65-14.85,7.65c-9.72,0-14.67-4.95-14.67-14.49
		c0-9.36,8.1-15.39,20.16-15.39h7.56c-0.09-4.32-3.33-6.48-9.27-6.48c-5.22,0-9.99,0.99-14.31,2.97v-14.67
		c4.86-2.16,10.62-3.24,17.19-3.24C281.25,573.89,289.35,580.55,289.35,593.24z M271.35,604.67v-0.09h-4.23
		c-2.97,0-4.95,1.62-4.95,3.96c0,2.61,1.08,3.96,3.15,3.96C269.28,612.5,271.35,609.8,271.35,604.67z"/>
	<path class="st2" d="M370.97,592.43v31.86h-18v-29.25c0-3.78-1.44-5.76-4.14-5.76c-3.24,0-5.31,3.69-5.31,9.36v25.65h-18v-29.25
		c0-3.78-1.44-5.76-4.14-5.76c-3.24,0-5.31,3.69-5.31,9.36v25.65h-18v-49.5h14.67l1.71,7.47c3.78-5.76,9.45-8.37,14.4-8.37
		c5.94,0,10.17,2.43,12.51,7.29c4.05-5.04,9.9-7.29,14.94-7.29C365.93,573.89,370.97,580.28,370.97,592.43z"/>
	<path class="st2" d="M423.89,603.59h-27.36c1.26,4.41,5.13,6.66,11.61,6.66c5.22,0,10.35-0.81,13.95-2.34l-2.7,14.58
		c-4.41,1.71-10.17,2.7-16.47,2.7c-15.12,0-25.2-9.99-25.2-24.93c0-15.84,10.17-26.37,25.38-26.37c12.51,0,20.79,9.81,20.79,24.57
		V603.59z M396.72,594.32h9.81c-0.18-3.6-1.53-5.49-4.32-5.49C399.42,588.83,397.53,590.72,396.72,594.32z"/>
	<path class="st2" d="M478.34,593.33v30.96h-18v-28.35c0-4.41-1.71-6.66-5.04-6.66c-3.78,0-6.21,3.69-6.21,9.36v25.65h-18v-49.5
		h14.67l1.71,7.65c4.05-5.85,10.08-8.55,15.3-8.55C473.03,573.89,478.34,580.55,478.34,593.33z"/>
	<path class="st2" d="M522.98,608.27l-2.7,14.67c-3.06,1.35-7.92,2.25-12.15,2.25c-10.08,0-16.83-6.57-16.83-16.47v-19.26h-7.74
		v-14.67h8.73l2.16-11.34h14.85v11.34h13.05v14.67H509.3v15.48c0,2.88,1.89,4.86,4.77,4.86
		C517.22,609.8,520.46,609.26,522.98,608.27z"/>
	<path class="st2" d="M526.85,599.54c0-15.39,10.08-25.65,25.11-25.65c14.94,0,24.93,10.26,24.93,25.65
		c0,15.39-9.99,25.65-24.93,25.65C536.93,625.19,526.85,614.93,526.85,599.54z M558.35,599.54c0-6.12-2.52-10.26-6.48-10.26
		c-3.87,0-6.48,4.14-6.48,10.26s2.61,10.26,6.48,10.26C555.83,609.8,558.35,605.66,558.35,599.54z"/>
</g>
<g>
	<path class="st2" d="M128.34,656.09v70.2h-14.49l-1.62-6.93c-3.24,5.04-8.01,7.83-14.4,7.83c-11.52,0-19.17-10.17-19.17-25.38
		c0-15.57,7.65-25.92,19.17-25.92c5.22,0,9.36,1.98,12.51,5.4v-25.2H128.34z M110.34,701.54c0-6.12-2.7-10.26-6.66-10.26
		c-3.87,0-6.48,4.14-6.48,10.35c0,6.12,2.61,10.17,6.48,10.17C107.64,711.8,110.34,707.66,110.34,701.54z"/>
	<path class="st2" d="M137.34,656.09h18.36v16.2h-18.36V656.09z M137.52,676.79h18v49.5h-18V676.79z"/>
	<path class="st2" d="M215.64,728.09c0,11.34-11.61,18.9-29.07,18.9c-15.3,0-25.56-5.85-25.56-14.67c0-3.24,2.16-6.48,5.58-8.73
		c-2.34-1.89-3.78-4.86-3.78-8.37c0-4.23,2.34-8.55,6.03-11.88c-2.97-2.7-4.68-6.12-4.68-10.17c0-10.35,9.36-17.28,23.31-17.28
		c2.34,0,4.68,0.27,6.93,0.81l7.92-7.92l12.06,12.06l-4.86,4.77c1.89,2.34,2.97,4.95,2.97,7.56c0,9.63-9.63,16.02-24.12,16.02
		c-3.24,0-6.3-0.36-9.09-0.99c-0.99,0.63-1.53,1.53-1.53,2.34c0,1.26,0.99,2.16,2.43,2.16h18.27
		C208.8,712.7,215.64,718.82,215.64,728.09z M198.45,728.9c0-1.53-1.26-2.61-3.15-2.61h-15.75c-1.89,0-3.15,1.08-3.15,2.61
		c0,2.52,4.41,4.23,11.07,4.23C194.04,733.13,198.45,731.42,198.45,728.9z M182.7,693.17c0,2.88,2.25,4.86,5.58,4.86
		c3.33,0,5.58-1.98,5.58-4.86s-2.25-4.86-5.58-4.86C184.95,688.31,182.7,690.29,182.7,693.17z"/>
	<path class="st2" d="M221.04,656.09h18.36v16.2h-18.36V656.09z M221.22,676.79h18v49.5h-18V676.79z"/>
	<path class="st2" d="M284.67,710.27l-2.7,14.67c-3.06,1.35-7.92,2.25-12.15,2.25c-10.08,0-16.83-6.57-16.83-16.47v-19.26h-7.74
		v-14.67h8.73l2.16-11.34h14.85v11.34h13.05v14.67h-13.05v15.48c0,2.88,1.89,4.86,4.77,4.86
		C278.91,711.8,282.15,711.26,284.67,710.27z"/>
	<path class="st2" d="M334.43,695.24v31.05h-14.67l-1.53-6.75c-2.97,4.77-8.28,7.65-14.85,7.65c-9.72,0-14.67-4.95-14.67-14.49
		c0-9.36,8.1-15.39,20.16-15.39h7.56c-0.09-4.32-3.33-6.48-9.27-6.48c-5.22,0-9.99,0.99-14.31,2.97v-14.67
		c4.86-2.16,10.62-3.24,17.19-3.24C326.33,675.89,334.43,682.55,334.43,695.24z M316.44,706.67v-0.09h-4.23
		c-2.97,0-4.95,1.62-4.95,3.96c0,2.61,1.08,3.96,3.15,3.96C314.37,714.5,316.44,711.8,316.44,706.67z"/>
	<path class="st2" d="M343.17,656.09h18v70.2h-18V656.09z"/>
</g>
<path class="st1" d="M1114.13,104.84c-30.45,0-55.83,25.38-55.83,55.83V781.9c0,30.45,25.38,55.83,55.83,55.83h345.13
	c30.45,0,55.83-25.38,55.83-55.83V160.67c0-30.45-25.38-55.83-55.83-55.83H1114.13z M1459.26,878.34h-345.13
	c-52.79,0-96.44-42.63-96.44-96.44V160.67c0-52.78,42.63-96.43,96.44-96.43h345.13c52.79,0,96.44,42.63,96.44,96.43V781.9
	C1554.68,834.69,1512.04,878.34,1459.26,878.34"/>
<path class="st1" d="M1286.69,739.27c20.74,0,37.56,16.82,37.56,37.56c0,20.74-16.81,37.56-37.56,37.56
	c-20.74,0-37.56-16.82-37.56-37.56C1249.14,756.09,1265.95,739.27,1286.69,739.27"/>
<path class="st1" d="M1407.39,526.52c-12.21,0-22.11-9.89-22.11-22.11c0-12.21,9.9-22.11,22.11-22.11c12.21,0,22.11,9.9,22.11,22.11
	C1429.5,516.63,1419.6,526.52,1407.39,526.52 M1186.3,526.52c-12.21,0-22.11-9.91-22.11-22.11s9.9-22.11,22.11-22.11
	c12.21,0,22.11,9.91,22.11,22.11S1198.5,526.52,1186.3,526.52 M1212.09,371.76h169.51l22.11,66.33h-213.73L1212.09,371.76z
	 M1477.4,438.08c0-12.16-9.95-22.11-22.11-22.11h-23.47l-19.34-52.49c-2.8-7.61-11.33-16.1-18.95-18.87c0,0-26.68-9.7-96.69-9.7
	c-70.02,0-96.7,9.7-96.7,9.7c-7.62,2.77-16.15,11.26-18.95,18.87l-19.34,52.49h-23.47c-12.16,0-22.11,9.95-22.11,22.11
	c0,12.16,9.95,22.11,22.11,22.11h7.17l-5.77,15.65c-2.8,7.61-5.1,20.46-5.1,28.57v95.81c0,16.22,13.26,29.48,29.48,29.48
	c16.21,0,29.48-13.26,29.48-29.48v-14.74h206.35v14.74c0,16.22,13.27,29.48,29.48,29.48s29.48-13.26,29.48-29.48v-95.81
	c0-8.11-2.29-20.96-5.1-28.57l-5.76-15.65h7.17C1467.45,460.19,1477.4,450.24,1477.4,438.08"/>
<path class="st1" d="M1378.96,223.32c0,45.35-36.77,82.12-82.12,82.12c-45.35,0-82.12-36.76-82.12-82.12
	c0-45.35,36.76-82.12,82.12-82.12C1342.19,141.2,1378.96,177.97,1378.96,223.32"/>
<polygon class="st0" points="1325.68,228.85 1295.5,228.85 1295.5,248.34 1329.22,248.34 1329.22,263.55 1276.99,263.55 
	1276.99,181.49 1327.52,181.49 1327.52,196.71 1295.5,196.71 1295.5,213.76 1325.68,213.76 "/>
<line class="st3" x1="1103.5" y1="707.63" x2="1472.79" y2="707.63"/>
</svg>
