<?xml version="1.0" encoding="utf-8"?>
<!-- Generator: Adobe Illustrator 23.0.1, SVG Export Plug-In . SVG Version: 6.00 Build 0)  -->
<svg version="1.1" id="Camada_1" xmlns="http://www.w3.org/2000/svg" xmlns:xlink="http://www.w3.org/1999/xlink" x="0px" y="0px"
	 viewBox="0 0 1662 942.57" style="enable-background:new 0 0 1662 942.57;" xml:space="preserve">
<style type="text/css">
	.st0{fill:#EDEDED;}
	.st1{fill:#90268B;}
	.st2{fill:#F6921E;}
	.st3{fill:none;stroke:#FFFFFF;stroke-width:5.5869;}
	.st4{fill:#EDEDED;stroke:#90268B;stroke-width:25;stroke-miterlimit:10;}
</style>
<rect class="st0" width="1662" height="942.57"/>
<g>
	<path class="st2" d="M78.45,96.75c0-17.58,10.74-29.33,26.84-29.33c6.15,0,12.29,1.48,15.79,3.73v12.37
		c-2.88-1.71-7.55-2.88-11.75-2.88c-8.56,0-14.32,6.54-14.32,16.26c0,9.88,5.91,16.42,14.71,16.42c3.89,0,8.71-1.48,11.98-3.66
		v12.76c-3.81,2.49-10.35,4.12-16.26,4.12C89.27,126.55,78.45,114.65,78.45,96.75z"/>
	<path class="st2" d="M126.07,104.38c0-13.3,8.71-22.17,21.71-22.17c12.92,0,21.55,8.87,21.55,22.17s-8.64,22.17-21.55,22.17
		C134.78,126.55,126.07,117.68,126.07,104.38z M153.3,104.38c0-5.29-2.18-8.87-5.6-8.87c-3.35,0-5.6,3.58-5.6,8.87
		c0,5.29,2.26,8.87,5.6,8.87C151.12,113.25,153.3,109.67,153.3,104.38z"/>
	<path class="st2" d="M238.49,98.23v27.54h-15.56v-25.29c0-3.27-1.24-4.98-3.58-4.98c-2.8,0-4.59,3.19-4.59,8.09v22.17H199.2v-25.29
		c0-3.27-1.24-4.98-3.58-4.98c-2.8,0-4.59,3.19-4.59,8.09v22.17h-15.56V82.98h12.68l1.48,6.46c3.27-4.98,8.17-7.24,12.45-7.24
		c5.14,0,8.79,2.1,10.81,6.3c3.5-4.36,8.56-6.3,12.92-6.3C234.14,82.2,238.49,87.73,238.49,98.23z"/>
	<path class="st2" d="M244.33,104.38c0-13.3,8.71-22.17,21.71-22.17c12.92,0,21.55,8.87,21.55,22.17s-8.64,22.17-21.55,22.17
		C253.04,126.55,244.33,117.68,244.33,104.38z M271.56,104.38c0-5.29-2.18-8.87-5.6-8.87c-3.35,0-5.6,3.58-5.6,8.87
		c0,5.29,2.26,8.87,5.6,8.87C269.38,113.25,271.56,109.67,271.56,104.38z"/>
</g>
<g>
	<path class="st2" d="M142.95,182.27v27.54h-15.56v-25.29c0-3.27-1.24-4.98-3.58-4.98c-2.8,0-4.59,3.19-4.59,8.09v22.17h-15.56
		v-25.29c0-3.27-1.24-4.98-3.58-4.98c-2.8,0-4.59,3.19-4.59,8.09v22.17H79.93v-42.79h12.68l1.48,6.46
		c3.27-4.98,8.17-7.24,12.45-7.24c5.14,0,8.79,2.1,10.81,6.3c3.5-4.36,8.56-6.3,12.92-6.3
		C138.59,166.24,142.95,171.77,142.95,182.27z"/>
	<path class="st2" d="M148.78,188.42c0-13.3,8.71-22.17,21.71-22.17c12.92,0,21.55,8.87,21.55,22.17s-8.64,22.17-21.55,22.17
		C157.5,210.59,148.78,201.72,148.78,188.42z M176.02,188.42c0-5.29-2.18-8.87-5.6-8.87c-3.35,0-5.6,3.58-5.6,8.87
		c0,5.29,2.26,8.87,5.6,8.87C173.84,197.29,176.02,193.71,176.02,188.42z"/>
	<path class="st2" d="M239.04,183.05v26.76h-15.56V185.3c0-3.81-1.48-5.76-4.36-5.76c-3.27,0-5.37,3.19-5.37,8.09v22.17h-15.56
		v-42.79h12.68l1.48,6.61c3.5-5.06,8.71-7.39,13.23-7.39C234.45,166.24,239.04,172,239.04,183.05z"/>
	<path class="st2" d="M277.7,195.96l-2.33,12.68c-2.65,1.17-6.85,1.95-10.5,1.95c-8.71,0-14.55-5.68-14.55-14.24V179.7h-6.69v-12.68
		h7.55l1.87-9.8h12.84v9.8h11.28v12.68h-11.28v13.38c0,2.49,1.63,4.2,4.12,4.2C272.73,197.29,275.53,196.82,277.7,195.96z"/>
	<path class="st2" d="M320.73,182.97v26.84h-12.68l-1.32-5.83c-2.57,4.12-7.16,6.61-12.84,6.61c-8.4,0-12.68-4.28-12.68-12.53
		c0-8.09,7-13.3,17.43-13.3h6.54c-0.08-3.74-2.88-5.6-8.01-5.6c-4.51,0-8.64,0.86-12.37,2.57v-12.68c4.2-1.87,9.18-2.8,14.86-2.8
		C313.73,166.24,320.73,172,320.73,182.97z M305.17,192.85v-0.08h-3.66c-2.57,0-4.28,1.4-4.28,3.42c0,2.26,0.93,3.42,2.72,3.42
		C303.38,199.62,305.17,197.29,305.17,192.85z"/>
	<path class="st2" d="M358.15,166.24v14.86h-4.28c-6.15,0-10.04,3.5-10.04,8.87v19.84h-15.56v-42.79h12.68l1.63,7.16
		c3.42-5.45,8.64-7.94,13.07-7.94H358.15z"/>
	<path class="st2" d="M417.52,167.02v42.79h-12.68l-1.48-6.54c-3.35,5.06-8.48,7.31-12.84,7.31c-8.64,0-13.07-5.76-13.07-16.81
		v-26.77h15.56v24.51c0,3.81,1.32,5.76,3.97,5.76c3.03,0,4.98-3.19,4.98-8.09v-22.17H417.52z"/>
	<path class="st2" d="M488.47,182.27v27.54h-15.56v-25.29c0-3.27-1.24-4.98-3.58-4.98c-2.8,0-4.59,3.19-4.59,8.09v22.17h-15.56
		v-25.29c0-3.27-1.24-4.98-3.58-4.98c-2.8,0-4.59,3.19-4.59,8.09v22.17h-15.56v-42.79h12.68l1.48,6.46
		c3.27-4.98,8.17-7.24,12.45-7.24c5.14,0,8.79,2.1,10.81,6.3c3.5-4.36,8.56-6.3,12.92-6.3
		C484.12,166.24,488.47,171.77,488.47,182.27z"/>
</g>
<g>
	<path class="st2" d="M80.47,292.07l-2.33-12.37c3.89,2.1,9.65,3.5,14.39,3.5c3.42,0,5.68-0.93,5.68-2.65c0-1.01-0.86-1.79-2.1-2.18
		l-7-2.26c-5.99-1.95-10.35-5.21-10.35-11.59c0-8.56,6.77-14.24,16.88-14.24c5.29,0,11.59,1.24,15.64,3.11v11.44
		c-3.5-1.79-8.71-3.03-13.15-3.03c-2.33,0-3.81,0.7-3.81,1.79c0,0.93,0.62,1.32,1.71,1.71l7.08,2.33
		c5.14,1.71,10.66,5.13,10.66,11.67c0,9.18-7.7,15.33-19.22,15.33C88.72,294.63,83.12,293.62,80.47,292.07z"/>
	<path class="st2" d="M119.69,233.17h15.87v14h-15.87V233.17z M119.84,251.06h15.56v42.79h-15.56V251.06z"/>
	<path class="st2" d="M143.88,292.07l-2.33-12.37c3.89,2.1,9.65,3.5,14.39,3.5c3.42,0,5.68-0.93,5.68-2.65
		c0-1.01-0.86-1.79-2.1-2.18l-7-2.26c-5.99-1.95-10.35-5.21-10.35-11.59c0-8.56,6.77-14.24,16.88-14.24
		c5.29,0,11.59,1.24,15.64,3.11v11.44c-3.5-1.79-8.71-3.03-13.15-3.03c-2.33,0-3.81,0.7-3.81,1.79c0,0.93,0.62,1.32,1.71,1.71
		l7.08,2.33c5.14,1.71,10.66,5.13,10.66,11.67c0,9.18-7.7,15.33-19.22,15.33C152.13,294.63,146.53,293.62,143.88,292.07z"/>
	<path class="st2" d="M214.29,280.01l-2.33,12.68c-2.65,1.17-6.85,1.95-10.5,1.95c-8.71,0-14.55-5.68-14.55-14.24v-16.65h-6.69
		v-12.68h7.55l1.87-9.8h12.84v9.8h11.28v12.68h-11.28v13.38c0,2.49,1.63,4.2,4.12,4.2C209.31,281.33,212.11,280.86,214.29,280.01z"
		/>
	<path class="st2" d="M257.55,275.96H233.9c1.09,3.81,4.44,5.76,10.04,5.76c4.51,0,8.95-0.7,12.06-2.02l-2.33,12.6
		c-3.81,1.48-8.79,2.33-14.24,2.33c-13.07,0-21.79-8.64-21.79-21.55c0-13.69,8.79-22.8,21.94-22.8c10.81,0,17.97,8.48,17.97,21.24
		V275.96z M234.05,267.95h8.48c-0.16-3.11-1.32-4.75-3.73-4.75S234.75,264.83,234.05,267.95z"/>
	<path class="st2" d="M326.8,266.31v27.54h-15.56v-25.29c0-3.27-1.24-4.98-3.58-4.98c-2.8,0-4.59,3.19-4.59,8.09v22.17h-15.56
		v-25.29c0-3.27-1.24-4.98-3.58-4.98c-2.8,0-4.59,3.19-4.59,8.09v22.17h-15.56v-42.79h12.68l1.48,6.46
		c3.27-4.98,8.17-7.24,12.45-7.24c5.14,0,8.79,2.1,10.81,6.3c3.5-4.36,8.56-6.3,12.92-6.3C322.44,250.29,326.8,255.81,326.8,266.31z
		"/>
	<path class="st2" d="M372,267.01v26.84h-12.68l-1.32-5.83c-2.57,4.12-7.16,6.61-12.84,6.61c-8.4,0-12.68-4.28-12.68-12.53
		c0-8.09,7-13.3,17.43-13.3h6.54c-0.08-3.74-2.88-5.6-8.01-5.6c-4.51,0-8.64,0.86-12.37,2.57v-12.68c4.2-1.87,9.18-2.8,14.86-2.8
		C365,250.29,372,256.04,372,267.01z M356.44,276.9v-0.08h-3.66c-2.57,0-4.28,1.4-4.28,3.42c0,2.26,0.93,3.42,2.72,3.42
		C354.65,283.66,356.44,281.33,356.44,276.9z"/>
	<path class="st2" d="M437.04,233.17v60.69h-12.53l-1.4-5.99c-2.8,4.36-6.92,6.77-12.45,6.77c-9.96,0-16.57-8.79-16.57-21.94
		c0-13.46,6.61-22.41,16.57-22.41c4.51,0,8.09,1.71,10.81,4.67v-21.79H437.04z M421.48,272.46c0-5.29-2.33-8.87-5.76-8.87
		c-3.35,0-5.6,3.58-5.6,8.95c0,5.29,2.26,8.79,5.6,8.79C419.15,281.33,421.48,277.75,421.48,272.46z"/>
	<path class="st2" d="M483.1,275.96h-23.65c1.09,3.81,4.44,5.76,10.04,5.76c4.51,0,8.95-0.7,12.06-2.02l-2.33,12.6
		c-3.81,1.48-8.79,2.33-14.24,2.33c-13.07,0-21.79-8.64-21.79-21.55c0-13.69,8.79-22.8,21.94-22.8c10.81,0,17.97,8.48,17.97,21.24
		V275.96z M459.6,267.95h8.48c-0.16-3.11-1.32-4.75-3.73-4.75S460.31,264.83,459.6,267.95z"/>
</g>
<g>
	<path class="st2" d="M79.77,317.21h15.87v14H79.77V317.21z M79.93,335.1h15.56v42.79H79.93V335.1z"/>
	<path class="st2" d="M144.27,351.13v26.76h-15.56v-24.51c0-3.81-1.48-5.76-4.36-5.76c-3.27,0-5.37,3.19-5.37,8.09v22.17h-15.56
		V335.1h12.68l1.48,6.61c3.5-5.06,8.71-7.39,13.23-7.39C139.68,334.33,144.27,340.08,144.27,351.13z"/>
	<path class="st2" d="M171.19,335.1h8.79v12.68h-8.79v30.11h-15.56v-30.11h-5.68V335.1h5.68v-3.81c0-8.95,5.52-14.86,13.69-14.86
		c3.42,0,7.16,0.39,9.65,1.4l2.33,12.6c-1.71-0.47-3.42-0.7-5.6-0.7c-2.72,0-4.51,1.56-4.51,3.97V335.1z"/>
	<path class="st2" d="M182.24,356.5c0-13.3,8.71-22.17,21.71-22.17c12.92,0,21.55,8.87,21.55,22.17s-8.64,22.17-21.55,22.17
		C190.95,378.67,182.24,369.8,182.24,356.5z M209.47,356.5c0-5.29-2.18-8.87-5.6-8.87c-3.35,0-5.6,3.58-5.6,8.87
		c0,5.29,2.26,8.87,5.6,8.87C207.29,365.37,209.47,361.79,209.47,356.5z"/>
	<path class="st2" d="M261.52,334.33v14.86h-4.28c-6.15,0-10.04,3.5-10.04,8.87v19.84h-15.56V335.1h12.68l1.63,7.16
		c3.42-5.45,8.64-7.94,13.07-7.94H261.52z"/>
	<path class="st2" d="M329.6,350.35v27.54h-15.56v-25.29c0-3.27-1.24-4.98-3.58-4.98c-2.8,0-4.59,3.19-4.59,8.09v22.17h-15.56
		v-25.29c0-3.27-1.24-4.98-3.58-4.98c-2.8,0-4.59,3.19-4.59,8.09v22.17h-15.56V335.1h12.68l1.48,6.46
		c3.27-4.98,8.17-7.24,12.45-7.24c5.14,0,8.79,2.1,10.81,6.3c3.5-4.36,8.56-6.3,12.92-6.3C325.24,334.33,329.6,339.85,329.6,350.35z
		"/>
	<path class="st2" d="M374.8,351.05v26.84h-12.68l-1.32-5.83c-2.57,4.12-7.16,6.61-12.84,6.61c-8.4,0-12.68-4.28-12.68-12.53
		c0-8.09,7-13.3,17.43-13.3h6.54c-0.08-3.74-2.88-5.6-8.01-5.6c-4.51,0-8.64,0.86-12.37,2.57v-12.68c4.2-1.87,9.18-2.8,14.86-2.8
		C367.8,334.33,374.8,340.08,374.8,351.05z M359.24,360.94v-0.08h-3.66c-2.57,0-4.28,1.4-4.28,3.42c0,2.26,0.93,3.42,2.72,3.42
		C357.45,367.7,359.24,365.37,359.24,360.94z"/>
	<path class="st2" d="M405.46,378.52l-1.56,1.87c4.2,0.86,6.77,3.35,6.77,6.77c0,5.21-5.14,8.64-12.76,8.64c-2.8,0-5.6-0.47-7-1.17
		v-6.69c1.4,0.7,3.58,1.17,5.45,1.17c1.79,0,3.03-0.7,3.03-1.79c0-1.09-1.09-1.79-2.72-1.79h-1.71l-1.79-3.35l3.03-4.2
		c-9.57-2.41-15.64-10.43-15.64-21.47c0-13.3,8.87-22.17,22.1-22.17c4.51,0,9.8,1.17,13.3,2.88v12.84
		c-3.19-1.48-7.31-2.41-10.27-2.41c-5.45,0-9.03,3.58-9.03,8.87c0,5.29,3.73,8.87,9.41,8.87c3.5,0,7.39-0.78,10.5-2.33v12.6
		C413.94,377.12,409.73,378.21,405.46,378.52z"/>
	<path class="st2" d="M421.09,356.5c0-13.3,8.71-22.17,21.71-22.17c12.92,0,21.55,8.87,21.55,22.17s-8.64,22.17-21.55,22.17
		C429.81,378.67,421.09,369.8,421.09,356.5z M437.28,328.72c-1.17,0-1.63,0.93-1.63,2.49h-8.01c0-8.01,3.58-13.3,9.34-13.3
		c4.43,0,9.18,3.11,11.28,3.11c1.17,0,1.63-0.62,1.63-2.33h8.01c0,8.56-3.66,13.3-9.34,13.3
		C444.51,331.99,439.22,328.72,437.28,328.72z M448.32,356.5c0-5.29-2.18-8.87-5.6-8.87c-3.35,0-5.6,3.58-5.6,8.87
		c0,5.29,2.26,8.87,5.6,8.87C446.15,365.37,448.32,361.79,448.32,356.5z"/>
	<path class="st2" d="M508.62,360h-23.65c1.09,3.81,4.44,5.76,10.04,5.76c4.51,0,8.95-0.7,12.06-2.02l-2.33,12.6
		c-3.81,1.48-8.79,2.33-14.24,2.33c-13.07,0-21.79-8.64-21.79-21.55c0-13.69,8.79-22.8,21.94-22.8c10.81,0,17.97,8.48,17.97,21.24
		V360z M485.13,351.99h8.48c-0.16-3.11-1.32-4.75-3.73-4.75S485.83,348.87,485.13,351.99z"/>
	<path class="st2" d="M515.39,376.11l-2.33-12.37c3.89,2.1,9.65,3.5,14.39,3.5c3.42,0,5.68-0.93,5.68-2.65
		c0-1.01-0.86-1.79-2.1-2.18l-7-2.26c-5.99-1.95-10.35-5.21-10.35-11.59c0-8.56,6.77-14.24,16.88-14.24
		c5.29,0,11.59,1.25,15.64,3.11v11.44c-3.5-1.79-8.71-3.03-13.15-3.03c-2.33,0-3.81,0.7-3.81,1.79c0,0.93,0.62,1.32,1.71,1.71
		l7.08,2.33c5.14,1.71,10.66,5.13,10.66,11.67c0,9.18-7.7,15.33-19.22,15.33C523.64,378.67,518.04,377.66,515.39,376.11z"/>
</g>
<g>
	<path class="st2" d="M123.97,463.49c0,9.8-10.04,16.34-25.13,16.34c-13.23,0-22.1-5.06-22.1-12.68c0-2.8,1.87-5.6,4.82-7.55
		c-2.02-1.63-3.27-4.2-3.27-7.24c0-3.66,2.02-7.39,5.21-10.27c-2.57-2.33-4.05-5.29-4.05-8.79c0-8.95,8.09-14.94,20.15-14.94
		c2.02,0,4.05,0.23,5.99,0.7l6.85-6.85l10.43,10.43l-4.2,4.12c1.63,2.02,2.57,4.28,2.57,6.54c0,8.33-8.33,13.85-20.85,13.85
		c-2.8,0-5.45-0.31-7.86-0.86c-0.86,0.54-1.32,1.32-1.32,2.02c0,1.09,0.86,1.87,2.1,1.87h15.79
		C118.05,450.19,123.97,455.48,123.97,463.49z M109.11,464.19c0-1.32-1.09-2.26-2.72-2.26H92.77c-1.63,0-2.72,0.93-2.72,2.26
		c0,2.18,3.81,3.66,9.57,3.66C105.29,467.85,109.11,466.37,109.11,464.19z M95.49,433.31c0,2.49,1.95,4.2,4.82,4.2
		c2.88,0,4.82-1.71,4.82-4.2c0-2.49-1.95-4.2-4.82-4.2C97.44,429.11,95.49,430.82,95.49,433.31z"/>
	<path class="st2" d="M166.37,444.04h-23.65c1.09,3.81,4.44,5.76,10.04,5.76c4.51,0,8.95-0.7,12.06-2.02l-2.33,12.6
		c-3.81,1.48-8.79,2.33-14.24,2.33c-13.07,0-21.79-8.64-21.79-21.55c0-13.69,8.79-22.8,21.94-22.8c10.81,0,17.97,8.48,17.97,21.24
		V444.04z M142.87,436.03h8.48c-0.16-3.11-1.32-4.75-3.73-4.75S143.57,432.92,142.87,436.03z"/>
	<path class="st2" d="M170.8,440.54c0-13.3,8.71-22.17,21.71-22.17c12.92,0,21.55,8.87,21.55,22.17s-8.64,22.17-21.55,22.17
		C179.52,462.72,170.8,453.85,170.8,440.54z M198.03,440.54c0-5.29-2.18-8.87-5.6-8.87c-3.35,0-5.6,3.58-5.6,8.87
		c0,5.29,2.26,8.87,5.6,8.87C195.86,449.41,198.03,445.83,198.03,440.54z"/>
	<path class="st2" d="M264.25,463.49c0,9.8-10.04,16.34-25.13,16.34c-13.23,0-22.1-5.06-22.1-12.68c0-2.8,1.87-5.6,4.82-7.55
		c-2.02-1.63-3.27-4.2-3.27-7.24c0-3.66,2.02-7.39,5.21-10.27c-2.57-2.33-4.05-5.29-4.05-8.79c0-8.95,8.09-14.94,20.15-14.94
		c2.02,0,4.05,0.23,5.99,0.7l6.85-6.85l10.43,10.43l-4.2,4.12c1.63,2.02,2.57,4.28,2.57,6.54c0,8.33-8.33,13.85-20.85,13.85
		c-2.8,0-5.45-0.31-7.86-0.86c-0.86,0.54-1.32,1.32-1.32,2.02c0,1.09,0.86,1.87,2.1,1.87h15.79
		C258.33,450.19,264.25,455.48,264.25,463.49z M249.38,464.19c0-1.32-1.09-2.26-2.72-2.26h-13.62c-1.63,0-2.72,0.93-2.72,2.26
		c0,2.18,3.81,3.66,9.57,3.66C245.57,467.85,249.38,466.37,249.38,464.19z M235.77,433.31c0,2.49,1.95,4.2,4.82,4.2
		c2.88,0,4.82-1.71,4.82-4.2c0-2.49-1.95-4.2-4.82-4.2C237.71,429.11,235.77,430.82,235.77,433.31z"/>
	<path class="st2" d="M298.95,418.37v14.86h-4.28c-6.15,0-10.04,3.5-10.04,8.87v19.84h-15.56v-42.79h12.68l1.63,7.16
		c3.42-5.45,8.64-7.94,13.07-7.94H298.95z"/>
	<path class="st2" d="M340.73,435.1v26.84h-12.68l-1.32-5.83c-2.57,4.12-7.16,6.61-12.84,6.61c-8.4,0-12.68-4.28-12.68-12.53
		c0-8.09,7-13.3,17.43-13.3h6.54c-0.08-3.74-2.88-5.6-8.01-5.6c-4.51,0-8.64,0.86-12.37,2.57v-12.68c4.2-1.87,9.18-2.8,14.86-2.8
		C333.72,418.37,340.73,424.13,340.73,435.1z M327.73,416.27h-13.07l9.26-15.02h17.74L327.73,416.27z M325.16,444.98v-0.08h-3.66
		c-2.57,0-4.28,1.4-4.28,3.42c0,2.26,0.93,3.42,2.72,3.42C323.37,451.75,325.16,449.41,325.16,444.98z"/>
	<path class="st2" d="M367.41,417.75v1.4h8.79v12.68h-8.79v30.11h-15.56v-30.11h-5.68v-12.68h5.68v-3.81
		c0-8.95,5.52-14.86,13.69-14.86c3.42,0,7.16,0.39,9.65,1.4l2.33,12.6c-1.71-0.47-3.42-0.7-5.6-0.7
		C369.2,413.78,367.41,415.33,367.41,417.75z M396.98,401.25v14H381.1v-14H396.98z M381.26,419.15h15.56v42.79h-15.56V419.15z"/>
	<path class="st2" d="M402.97,440.54c0-13.3,8.87-22.17,22.1-22.17c4.51,0,9.8,1.17,13.3,2.88v12.84
		c-3.19-1.48-7.31-2.41-10.27-2.41c-5.45,0-9.03,3.58-9.03,8.87c0,5.29,3.73,8.87,9.41,8.87c3.5,0,7.39-0.78,10.5-2.33v12.6
		c-3.27,1.79-8.95,3.03-14.16,3.03C411.68,462.72,402.97,453.85,402.97,440.54z"/>
	<path class="st2" d="M483.18,435.1v26.84H470.5l-1.32-5.83c-2.57,4.12-7.16,6.61-12.84,6.61c-8.4,0-12.68-4.28-12.68-12.53
		c0-8.09,7-13.3,17.43-13.3h6.54c-0.08-3.74-2.88-5.6-8.01-5.6c-4.51,0-8.64,0.86-12.37,2.57v-12.68c4.2-1.87,9.18-2.8,14.86-2.8
		C476.18,418.37,483.18,424.13,483.18,435.1z M467.62,444.98v-0.08h-3.66c-2.57,0-4.28,1.4-4.28,3.42c0,2.26,0.93,3.42,2.72,3.42
		C465.83,451.75,467.62,449.41,467.62,444.98z"/>
	<path class="st2" d="M491.27,460.15l-2.33-12.37c3.89,2.1,9.65,3.5,14.39,3.5c3.42,0,5.68-0.93,5.68-2.65
		c0-1.01-0.86-1.79-2.1-2.18l-7-2.26c-5.99-1.95-10.35-5.21-10.35-11.59c0-8.56,6.77-14.24,16.88-14.24
		c5.29,0,11.59,1.25,15.64,3.11v11.44c-3.5-1.79-8.71-3.03-13.15-3.03c-2.33,0-3.81,0.7-3.81,1.79c0,0.93,0.62,1.32,1.71,1.71
		l7.08,2.33c5.14,1.71,10.66,5.13,10.66,11.67c0,9.18-7.7,15.33-19.22,15.33C499.52,462.72,493.92,461.71,491.27,460.15z"/>
</g>
<g>
	<path class="st2" d="M80.47,544.19l-2.33-12.37c3.89,2.1,9.65,3.5,14.39,3.5c3.42,0,5.68-0.93,5.68-2.65c0-1.01-0.86-1.79-2.1-2.18
		l-7-2.26c-5.99-1.95-10.35-5.21-10.35-11.59c0-8.56,6.77-14.24,16.88-14.24c5.29,0,11.59,1.24,15.64,3.11v11.44
		c-3.5-1.79-8.71-3.03-13.15-3.03c-2.33,0-3.81,0.7-3.81,1.79c0,0.93,0.62,1.32,1.71,1.71l7.08,2.33
		c5.14,1.71,10.66,5.13,10.66,11.67c0,9.18-7.7,15.33-19.22,15.33C88.72,546.76,83.12,545.75,80.47,544.19z"/>
	<path class="st2" d="M118.05,524.59c0-13.3,8.71-22.17,21.71-22.17c12.92,0,21.55,8.87,21.55,22.17s-8.64,22.17-21.55,22.17
		C126.77,546.76,118.05,537.89,118.05,524.59z M145.28,524.59c0-5.29-2.18-8.87-5.6-8.87c-3.35,0-5.6,3.58-5.6,8.87
		c0,5.29,2.26,8.87,5.6,8.87C143.1,533.46,145.28,529.88,145.28,524.59z"/>
	<path class="st2" d="M210.41,524.82c0,13.15-6.61,21.94-16.57,21.94c-5.45,0-9.57-2.41-12.37-6.69l-1.32,5.91h-12.68V485.3h15.56
		v21.79c2.72-2.96,6.3-4.67,10.81-4.67C203.79,502.41,210.41,511.36,210.41,524.82z M194.38,524.66c0-5.37-2.26-8.95-5.6-8.95
		c-3.42,0-5.76,3.58-5.76,8.87c0,5.29,2.33,8.87,5.76,8.87C192.12,533.46,194.38,529.96,194.38,524.66z"/>
	<path class="st2" d="M246.58,502.41v14.86h-4.28c-6.15,0-10.04,3.5-10.04,8.87v19.84h-15.56v-42.79h12.68l1.63,7.16
		c3.42-5.45,8.64-7.94,13.07-7.94H246.58z"/>
	<path class="st2" d="M288.75,528.09H265.1c1.09,3.81,4.44,5.76,10.04,5.76c4.51,0,8.95-0.7,12.06-2.02l-2.33,12.6
		c-3.81,1.48-8.79,2.33-14.24,2.33c-13.07,0-21.79-8.64-21.79-21.55c0-13.69,8.79-22.8,21.94-22.8c10.81,0,17.97,8.48,17.97,21.24
		V528.09z M265.26,520.07h8.48c-0.16-3.11-1.32-4.75-3.73-4.75S265.96,516.96,265.26,520.07z"/>
</g>
<g>
	<path class="st2" d="M122.88,608.86c0,13.15-6.61,21.94-16.57,21.94c-4.51,0-8.09-1.63-10.81-4.67v21.01H79.93v-59.91h13.23
		l1.01,5.6c2.8-4.05,6.85-6.38,12.14-6.38C116.26,586.45,122.88,595.4,122.88,608.86z M106.85,608.7c0-5.37-2.26-8.95-5.6-8.95
		c-3.42,0-5.76,3.58-5.76,8.87c0,5.29,2.33,8.87,5.76,8.87C104.59,617.49,106.85,613.99,106.85,608.7z"/>
	<path class="st2" d="M166.76,603.18v26.84h-12.68l-1.32-5.83c-2.57,4.12-7.16,6.61-12.84,6.61c-8.4,0-12.68-4.28-12.68-12.53
		c0-8.09,7-13.3,17.43-13.3h6.54c-0.08-3.74-2.88-5.6-8.01-5.6c-4.51,0-8.64,0.86-12.37,2.57v-12.68c4.2-1.87,9.18-2.8,14.86-2.8
		C159.76,586.45,166.76,592.2,166.76,603.18z M151.2,613.06v-0.08h-3.66c-2.57,0-4.28,1.4-4.28,3.42c0,2.26,0.93,3.42,2.72,3.42
		C149.41,619.83,151.2,617.49,151.2,613.06z"/>
	<path class="st2" d="M204.18,586.45v14.86h-4.28c-6.15,0-10.04,3.5-10.04,8.87v19.84H174.3v-42.79h12.68l1.63,7.16
		c3.42-5.45,8.64-7.94,13.07-7.94H204.18z"/>
	<path class="st2" d="M206.44,608.62c0-13.3,8.87-22.17,22.1-22.17c4.51,0,9.8,1.17,13.3,2.88v12.84
		c-3.19-1.48-7.31-2.41-10.27-2.41c-5.45,0-9.03,3.58-9.03,8.87c0,5.29,3.73,8.87,9.41,8.87c3.5,0,7.39-0.78,10.5-2.33v12.6
		c-3.27,1.79-8.95,3.03-14.16,3.03C215.15,630.8,206.44,621.93,206.44,608.62z"/>
	<path class="st2" d="M286.96,612.12h-23.65c1.09,3.81,4.44,5.76,10.04,5.76c4.51,0,8.95-0.7,12.06-2.02l-2.33,12.6
		c-3.81,1.48-8.79,2.33-14.24,2.33c-13.07,0-21.79-8.64-21.79-21.55c0-13.69,8.79-22.8,21.94-22.8c10.81,0,17.97,8.48,17.97,21.24
		V612.12z M263.47,604.11h8.48c-0.16-3.11-1.32-4.75-3.73-4.75S264.17,601,263.47,604.11z"/>
	<path class="st2" d="M293.19,569.33h15.56v60.69h-15.56V569.33z"/>
	<path class="st2" d="M354.26,603.18v26.84h-12.68l-1.32-5.83c-2.57,4.12-7.16,6.61-12.84,6.61c-8.4,0-12.68-4.28-12.68-12.53
		c0-8.09,7-13.3,17.43-13.3h6.54c-0.08-3.74-2.88-5.6-8.01-5.6c-4.51,0-8.64,0.86-12.37,2.57v-12.68c4.2-1.87,9.18-2.8,14.86-2.8
		C347.26,586.45,354.26,592.2,354.26,603.18z M338.7,613.06v-0.08h-3.66c-2.57,0-4.28,1.4-4.28,3.42c0,2.26,0.93,3.42,2.72,3.42
		C336.91,619.83,338.7,617.49,338.7,613.06z"/>
	<path class="st2" d="M424.83,602.48v27.54h-15.56v-25.29c0-3.27-1.24-4.98-3.58-4.98c-2.8,0-4.59,3.19-4.59,8.09v22.17h-15.56
		v-25.29c0-3.27-1.24-4.98-3.58-4.98c-2.8,0-4.59,3.19-4.59,8.09v22.17h-15.56v-42.79h12.68l1.48,6.46
		c3.27-4.98,8.17-7.24,12.45-7.24c5.14,0,8.79,2.1,10.81,6.3c3.5-4.36,8.56-6.3,12.92-6.3
		C420.47,586.45,424.83,591.97,424.83,602.48z"/>
	<path class="st2" d="M470.58,612.12h-23.65c1.09,3.81,4.44,5.76,10.04,5.76c4.51,0,8.95-0.7,12.06-2.02l-2.33,12.6
		c-3.81,1.48-8.79,2.33-14.24,2.33c-13.07,0-21.79-8.64-21.79-21.55c0-13.69,8.79-22.8,21.94-22.8c10.81,0,17.97,8.48,17.97,21.24
		V612.12z M447.08,604.11h8.48c-0.16-3.11-1.32-4.75-3.73-4.75S447.78,601,447.08,604.11z"/>
	<path class="st2" d="M517.65,603.25v26.76h-15.56v-24.51c0-3.81-1.48-5.76-4.36-5.76c-3.27,0-5.37,3.19-5.37,8.09v22.17H476.8
		v-42.79h12.68l1.48,6.61c3.5-5.06,8.71-7.39,13.23-7.39C513.06,586.45,517.65,592.2,517.65,603.25z"/>
	<path class="st2" d="M556.31,616.17l-2.33,12.68c-2.65,1.17-6.85,1.95-10.5,1.95c-8.71,0-14.55-5.68-14.55-14.24v-16.65h-6.69
		v-12.68h7.55l1.87-9.8h12.84v9.8h11.28v12.68h-11.28v13.38c0,2.49,1.63,4.2,4.12,4.2C551.34,617.49,554.14,617.03,556.31,616.17z"
		/>
	<path class="st2" d="M559.66,608.62c0-13.3,8.71-22.17,21.71-22.17c12.92,0,21.55,8.87,21.55,22.17s-8.64,22.17-21.55,22.17
		C568.37,630.8,559.66,621.93,559.66,608.62z M586.89,608.62c0-5.29-2.18-8.87-5.6-8.87c-3.35,0-5.6,3.58-5.6,8.87
		c0,5.29,2.26,8.87,5.6,8.87C584.71,617.49,586.89,613.91,586.89,608.62z"/>
</g>
<g>
	<path class="st2" d="M121.24,653.37v60.69h-12.53l-1.4-5.99c-2.8,4.36-6.92,6.77-12.45,6.77c-9.96,0-16.57-8.79-16.57-21.94
		c0-13.46,6.61-22.41,16.57-22.41c4.51,0,8.09,1.71,10.81,4.67v-21.79H121.24z M105.68,692.67c0-5.29-2.33-8.87-5.76-8.87
		c-3.35,0-5.6,3.58-5.6,8.95c0,5.29,2.26,8.79,5.6,8.79C103.35,701.54,105.68,697.96,105.68,692.67z"/>
	<path class="st2" d="M127.39,692.67c0-13.3,8.71-22.17,21.71-22.17c12.92,0,21.55,8.87,21.55,22.17s-8.64,22.17-21.55,22.17
		C136.1,714.84,127.39,705.97,127.39,692.67z M154.62,692.67c0-5.29-2.18-8.87-5.6-8.87c-3.35,0-5.6,3.58-5.6,8.87
		c0,5.29,2.26,8.87,5.6,8.87C152.44,701.54,154.62,697.96,154.62,692.67z"/>
	<path class="st2" d="M232.74,671.27v42.79h-12.68l-1.48-6.54c-3.35,5.06-8.48,7.31-12.84,7.31c-8.64,0-13.07-5.76-13.07-16.81
		v-26.77h15.56v24.51c0,3.81,1.32,5.76,3.97,5.76c3.03,0,4.98-3.19,4.98-8.09v-22.17H232.74z"/>
	<path class="st2" d="M241.21,712.27l-2.33-12.37c3.89,2.1,9.65,3.5,14.39,3.5c3.42,0,5.68-0.93,5.68-2.65
		c0-1.01-0.86-1.79-2.1-2.18l-7-2.26c-5.99-1.95-10.35-5.21-10.35-11.59c0-8.56,6.77-14.24,16.88-14.24
		c5.29,0,11.59,1.25,15.64,3.11v11.44c-3.5-1.79-8.71-3.03-13.15-3.03c-2.33,0-3.81,0.7-3.81,1.79c0,0.93,0.62,1.32,1.71,1.71
		l7.08,2.33c5.14,1.71,10.66,5.13,10.66,11.67c0,9.18-7.7,15.33-19.22,15.33C249.46,714.84,243.86,713.83,241.21,712.27z"/>
	<path class="st2" d="M278.79,692.67c0-13.3,8.71-22.17,21.71-22.17c12.92,0,21.55,8.87,21.55,22.17s-8.64,22.17-21.55,22.17
		C287.51,714.84,278.79,705.97,278.79,692.67z M306.02,692.67c0-5.29-2.18-8.87-5.6-8.87c-3.35,0-5.6,3.58-5.6,8.87
		c0,5.29,2.26,8.87,5.6,8.87C303.85,701.54,306.02,697.96,306.02,692.67z"/>
	<path class="st2" d="M385.7,653.37v60.69h-12.53l-1.4-5.99c-2.8,4.36-6.92,6.77-12.45,6.77c-9.96,0-16.57-8.79-16.57-21.94
		c0-13.46,6.61-22.41,16.57-22.41c4.51,0,8.09,1.71,10.81,4.67v-21.79H385.7z M370.13,692.67c0-5.29-2.33-8.87-5.76-8.87
		c-3.35,0-5.6,3.58-5.6,8.95c0,5.29,2.26,8.79,5.6,8.79C367.8,701.54,370.13,697.96,370.13,692.67z"/>
	<path class="st2" d="M391.84,692.67c0-13.3,8.71-22.17,21.71-22.17c12.92,0,21.55,8.87,21.55,22.17s-8.64,22.17-21.55,22.17
		C400.56,714.84,391.84,705.97,391.84,692.67z M419.07,692.67c0-5.29-2.18-8.87-5.6-8.87c-3.35,0-5.6,3.58-5.6,8.87
		c0,5.29,2.26,8.87,5.6,8.87C416.89,701.54,419.07,697.96,419.07,692.67z"/>
	<path class="st2" d="M457.97,712.27l-2.33-12.37c3.89,2.1,9.65,3.5,14.39,3.5c3.42,0,5.68-0.93,5.68-2.65
		c0-1.01-0.86-1.79-2.1-2.18l-7-2.26c-5.99-1.95-10.35-5.21-10.35-11.59c0-8.56,6.77-14.24,16.88-14.24
		c5.29,0,11.59,1.25,15.64,3.11v11.44c-3.5-1.79-8.71-3.03-13.15-3.03c-2.33,0-3.81,0.7-3.81,1.79c0,0.93,0.62,1.32,1.71,1.71
		l7.08,2.33c5.14,1.71,10.66,5.13,10.66,11.67c0,9.18-7.7,15.33-19.22,15.33C466.22,714.84,460.62,713.83,457.97,712.27z"/>
	<path class="st2" d="M495.55,692.67c0-13.3,8.71-22.17,21.71-22.17c12.92,0,21.55,8.87,21.55,22.17s-8.64,22.17-21.55,22.17
		C504.27,714.84,495.55,705.97,495.55,692.67z M522.78,692.67c0-5.29-2.18-8.87-5.6-8.87c-3.35,0-5.6,3.58-5.6,8.87
		c0,5.29,2.26,8.87,5.6,8.87C520.6,701.54,522.78,697.96,522.78,692.67z"/>
	<path class="st2" d="M544.96,653.37h15.56v60.69h-15.56V653.37z"/>
	<path class="st2" d="M566.66,692.67c0-13.3,8.71-22.17,21.71-22.17c12.92,0,21.55,8.87,21.55,22.17s-8.64,22.17-21.55,22.17
		C575.38,714.84,566.66,705.97,566.66,692.67z M593.9,692.67c0-5.29-2.18-8.87-5.6-8.87c-3.35,0-5.6,3.58-5.6,8.87
		c0,5.29,2.26,8.87,5.6,8.87C591.72,701.54,593.9,697.96,593.9,692.67z"/>
</g>
<g>
	<path class="st2" d="M78.14,776.71c0-13.3,8.87-22.17,22.1-22.17c4.51,0,9.8,1.17,13.3,2.88v12.84c-3.19-1.48-7.31-2.41-10.27-2.41
		c-5.45,0-9.03,3.58-9.03,8.87c0,5.29,3.73,8.87,9.41,8.87c3.5,0,7.39-0.78,10.5-2.33v12.6c-3.27,1.79-8.95,3.03-14.16,3.03
		C86.85,798.88,78.14,790.01,78.14,776.71z"/>
	<path class="st2" d="M118.75,776.71c0-13.3,8.71-22.17,21.71-22.17c12.92,0,21.55,8.87,21.55,22.17s-8.64,22.17-21.55,22.17
		C127.47,798.88,118.75,790.01,118.75,776.71z M145.98,776.71c0-5.29-2.18-8.87-5.6-8.87c-3.35,0-5.6,3.58-5.6,8.87
		c0,5.29,2.26,8.87,5.6,8.87C143.81,785.58,145.98,782,145.98,776.71z"/>
	<path class="st2" d="M231.18,770.56v27.54h-15.56v-25.29c0-3.27-1.24-4.98-3.58-4.98c-2.8,0-4.59,3.19-4.59,8.09v22.17h-15.56
		v-25.29c0-3.27-1.24-4.98-3.58-4.98c-2.8,0-4.59,3.19-4.59,8.09v22.17h-15.56v-42.79h12.68l1.48,6.46
		c3.27-4.98,8.17-7.24,12.45-7.24c5.14,0,8.79,2.1,10.81,6.3c3.5-4.36,8.56-6.3,12.92-6.3
		C226.82,754.54,231.18,760.06,231.18,770.56z"/>
	<path class="st2" d="M255.53,796.32l-2.33-12.37c3.89,2.1,9.65,3.5,14.39,3.5c3.42,0,5.68-0.93,5.68-2.65
		c0-1.01-0.86-1.79-2.1-2.18l-7-2.26c-5.99-1.95-10.35-5.21-10.35-11.59c0-8.56,6.77-14.24,16.88-14.24
		c5.29,0,11.59,1.24,15.64,3.11v11.44c-3.5-1.79-8.71-3.03-13.15-3.03c-2.33,0-3.81,0.7-3.81,1.79c0,0.93,0.62,1.32,1.71,1.71
		l7.08,2.33c5.14,1.71,10.66,5.13,10.66,11.67c0,9.18-7.7,15.33-19.22,15.33C263.78,798.88,258.18,797.87,255.53,796.32z"/>
	<path class="st2" d="M293.11,776.71c0-13.3,8.71-22.17,21.71-22.17c12.92,0,21.55,8.87,21.55,22.17s-8.64,22.17-21.55,22.17
		C301.82,798.88,293.11,790.01,293.11,776.71z M320.34,776.71c0-5.29-2.18-8.87-5.6-8.87c-3.35,0-5.6,3.58-5.6,8.87
		c0,5.29,2.26,8.87,5.6,8.87C318.16,785.58,320.34,782,320.34,776.71z"/>
	<path class="st2" d="M361.5,755.31h8.79V768h-8.79v30.11h-15.56V768h-5.68v-12.68h5.68v-3.81c0-8.95,5.52-14.86,13.69-14.86
		c3.42,0,7.16,0.39,9.65,1.4l2.33,12.6c-1.71-0.47-3.42-0.7-5.6-0.7c-2.72,0-4.51,1.56-4.51,3.97V755.31z"/>
	<path class="st2" d="M406.7,784.26l-2.33,12.68c-2.65,1.17-6.85,1.95-10.5,1.95c-8.71,0-14.55-5.68-14.55-14.24V768h-6.69v-12.68
		h7.55l1.87-9.8h12.84v9.8h11.28V768h-11.28v13.38c0,2.49,1.63,4.2,4.12,4.2C401.72,785.58,404.52,785.11,406.7,784.26z"/>
	<path class="st2" d="M474.7,755.31l-13.54,42.79h-15.25l-4.59-21.86l-4.67,21.86h-15.09l-13.54-42.79h16.65l5.37,25.52l4.59-25.52
		h13.38l4.67,25.52l5.37-25.52H474.7z"/>
	<path class="st2" d="M515.24,771.26v26.84h-12.68l-1.32-5.83c-2.57,4.12-7.16,6.61-12.84,6.61c-8.4,0-12.68-4.28-12.68-12.53
		c0-8.09,7-13.3,17.43-13.3h6.54c-0.08-3.74-2.88-5.6-8.01-5.6c-4.51,0-8.64,0.86-12.37,2.57v-12.68c4.2-1.87,9.18-2.8,14.86-2.8
		C508.24,754.54,515.24,760.29,515.24,771.26z M499.68,781.15v-0.08h-3.66c-2.57,0-4.28,1.4-4.28,3.42c0,2.26,0.93,3.42,2.72,3.42
		C497.89,787.91,499.68,785.58,499.68,781.15z"/>
	<path class="st2" d="M552.66,754.54v14.86h-4.28c-6.15,0-10.04,3.5-10.04,8.87v19.84h-15.56v-42.79h12.68l1.63,7.16
		c3.42-5.45,8.64-7.94,13.07-7.94H552.66z"/>
	<path class="st2" d="M594.83,780.21h-23.65c1.09,3.81,4.44,5.76,10.04,5.76c4.51,0,8.95-0.7,12.06-2.02l-2.33,12.6
		c-3.81,1.48-8.79,2.33-14.24,2.33c-13.07,0-21.79-8.64-21.79-21.55c0-13.69,8.79-22.8,21.94-22.8c10.81,0,17.97,8.48,17.97,21.24
		V780.21z M571.33,772.2h8.48c-0.16-3.11-1.32-4.75-3.73-4.75S572.03,769.08,571.33,772.2z"/>
</g>
<g>
	<path class="st2" d="M79.93,821.45h15.56v60.69H79.93V821.45z"/>
	<path class="st2" d="M103.27,821.45h15.87v14h-15.87V821.45z M103.42,839.35h15.56v42.79h-15.56V839.35z"/>
	<path class="st2" d="M122.88,839.35h16.18l6.77,25.99l6.69-25.99h16.18l-15.17,42.79h-15.41L122.88,839.35z"/>
	<path class="st2" d="M202.47,838.57v14.86h-4.28c-6.15,0-10.04,3.5-10.04,8.87v19.84h-15.56v-42.79h12.68l1.63,7.16
		c3.42-5.45,8.64-7.94,13.07-7.94H202.47z"/>
	<path class="st2" d="M244.64,864.25h-23.65c1.09,3.81,4.44,5.76,10.04,5.76c4.51,0,8.95-0.7,12.06-2.02l-2.33,12.6
		c-3.81,1.48-8.79,2.33-14.24,2.33c-13.07,0-21.79-8.64-21.79-21.55c0-13.69,8.79-22.8,21.94-22.8c10.81,0,17.97,8.48,17.97,21.24
		V864.25z M221.14,856.23h8.48c-0.16-3.11-1.32-4.75-3.73-4.75S221.84,853.12,221.14,856.23z"/>
</g>
<path class="st4" d="M1421.76,594.02h-51.8 M1033.27,594.02h-51.8 M1201.61,639.71v52.21 M1138.64,490.17H1016.2l-73.58,207.69
	h517.99l-73.58-207.69H1264.6 M1201.61,176.85c40.96,0,74.17,33.48,74.17,74.78c0,41.29-33.21,74.77-74.17,74.77
	c-40.96,0-74.16-33.47-74.16-74.77C1127.45,210.33,1160.66,176.85,1201.61,176.85z M1335.82,363.77l-134.21,234.4l-134.21-234.99
	c-60.03-104.44,14.72-234.99,134.21-234.99C1321.7,128.78,1396.45,259.34,1335.82,363.77z"/>
</svg>
