<?xml version="1.0" encoding="utf-8"?>
<!-- Generator: Adobe Illustrator 23.0.1, SVG Export Plug-In . SVG Version: 6.00 Build 0)  -->
<svg version="1.1" id="Camada_1" xmlns="http://www.w3.org/2000/svg" xmlns:xlink="http://www.w3.org/1999/xlink" x="0px" y="0px"
	 viewBox="0 0 1662 942.57" style="enable-background:new 0 0 1662 942.57;" xml:space="preserve">
<style type="text/css">
	.st0{fill:#EDEDED;}
	.st1{fill:#90268B;}
	.st2{fill:#F6921E;}
	.st3{fill:none;stroke:#FFFFFF;stroke-width:5.5869;}
	.st4{fill:#EDEDED;stroke:#90268B;stroke-width:25;stroke-miterlimit:10;}
</style>
<rect class="st0" width="1662" height="942.57"/>
<path class="st1" d="M1528.66,452.6c0,19.94-11.18,37.35-27.64,46.42c-0.79,0.43-1.58,0.84-2.38,1.23
	c-0.11,0.05-0.21,0.11-0.32,0.17c-0.95,0.46-1.92,0.88-2.89,1.27c-0.2,0.08-0.4,0.16-0.6,0.23c-0.83,0.33-1.68,0.64-2.53,0.92
	c-0.17,0.06-0.35,0.12-0.53,0.18c-2.09,0.68-4.22,1.24-6.38,1.66c-0.07,0.01-0.13,0.02-0.2,0.04c-0.97,0.19-1.93,0.34-2.91,0.47
	c-0.24,0.04-0.49,0.06-0.73,0.1c-0.83,0.1-1.66,0.17-2.5,0.23c-0.26,0.02-0.53,0.05-0.8,0.07c-1.06,0.06-2.13,0.1-3.2,0.1
	c-0.83,0-1.66-0.02-2.49-0.07c-0.33-0.01-0.67-0.04-1-0.06c-0.47-0.03-0.93-0.07-1.4-0.1c-0.44-0.04-0.88-0.09-1.33-0.14
	c-0.3-0.03-0.59-0.07-0.89-0.11c-0.56-0.08-1.12-0.15-1.67-0.25c-0.02,0-0.03-0.01-0.05-0.01c-14.16-2.36-26.75-10.32-34.95-21.75
	c-0.13-0.19-0.27-0.37-0.4-0.56c-0.26-0.37-0.51-0.75-0.76-1.13c-0.19-0.29-0.38-0.59-0.58-0.88c-0.22-0.35-0.43-0.7-0.64-1.05
	c-0.2-0.34-0.41-0.7-0.61-1.04c-0.19-0.33-0.37-0.66-0.55-1c-0.22-0.4-0.42-0.8-0.62-1.2c-0.16-0.3-0.32-0.61-0.47-0.91
	c-0.32-0.66-0.62-1.33-0.91-2c-0.16-0.37-0.31-0.76-0.47-1.14c-0.14-0.36-0.29-0.72-0.43-1.08c-0.16-0.44-0.32-0.88-0.47-1.31
	c-0.1-0.29-0.2-0.59-0.31-0.89c-0.16-0.48-0.31-0.97-0.45-1.46c-1.41-4.75-2.18-9.75-2.18-14.94v-33.85h107.24V452.6z
	 M1494.45,785.6h-356.6V579.85c0-7.52-6.16-13.61-13.75-13.61H989.36c-7.59,0-13.75,6.09-13.75,13.61V785.6h-58.48V530.68
	c0.16,0.04,0.32,0.07,0.47,0.1c1.24,0.28,2.48,0.54,3.74,0.77c0.32,0.05,0.64,0.11,0.95,0.17c1.17,0.2,2.36,0.37,3.55,0.52
	c0.37,0.05,0.73,0.1,1.1,0.14c1.16,0.13,2.35,0.23,3.53,0.31c0.36,0.02,0.72,0.06,1.08,0.08c1.51,0.08,3.03,0.13,4.56,0.13
	c1.22,0,2.44-0.04,3.64-0.09c0.32-0.01,0.63-0.03,0.94-0.05c1.09-0.06,2.17-0.14,3.25-0.25c0.48-0.04,0.96-0.1,1.44-0.16
	c0.59-0.07,1.18-0.14,1.76-0.22c22.4-3.04,41.92-15.15,54.62-32.48c0.27-0.37,0.54-0.75,0.81-1.13c0.29-0.41,0.61-0.83,0.89-1.25
	c0.29,0.43,0.59,0.84,0.89,1.25c0.27,0.38,0.54,0.76,0.82,1.13c12.71,17.33,32.22,29.44,54.62,32.48c0.58,0.08,1.17,0.16,1.76,0.22
	c0.49,0.05,0.96,0.11,1.45,0.16c1.08,0.11,2.16,0.19,3.25,0.25c0.31,0.02,0.62,0.04,0.94,0.05c1.21,0.05,2.42,0.09,3.64,0.09
	c1.22,0,2.44-0.04,3.64-0.09c0.32-0.01,0.63-0.03,0.94-0.05c1.09-0.06,2.17-0.14,3.25-0.25c0.49-0.04,0.96-0.1,1.44-0.16
	c0.59-0.07,1.18-0.14,1.76-0.22c22.4-3.04,41.92-15.15,54.62-32.48c0.28-0.37,0.55-0.75,0.82-1.13c0.29-0.41,0.6-0.83,0.89-1.25
	c0.29,0.43,0.59,0.84,0.89,1.25c0.26,0.38,0.53,0.76,0.81,1.13c12.71,17.33,32.22,29.44,54.62,32.48c0.58,0.08,1.18,0.16,1.76,0.22
	c0.48,0.05,0.95,0.11,1.44,0.16c1.08,0.11,2.17,0.19,3.25,0.25c0.31,0.02,0.62,0.04,0.94,0.05c1.21,0.05,2.42,0.09,3.64,0.09
	c1.22,0,2.43-0.04,3.64-0.09c0.31-0.01,0.62-0.03,0.94-0.05c1.09-0.06,2.17-0.14,3.25-0.25c0.49-0.04,0.97-0.1,1.45-0.16
	c0.59-0.07,1.18-0.14,1.76-0.22c22.4-3.04,41.92-15.15,54.62-32.48c0.28-0.37,0.55-0.75,0.82-1.13c0.29-0.41,0.6-0.83,0.89-1.25
	c0.29,0.43,0.6,0.84,0.89,1.25c0.27,0.38,0.54,0.76,0.81,1.13c12.71,17.33,32.22,29.44,54.62,32.48c0.59,0.08,1.18,0.16,1.76,0.22
	c0.48,0.05,0.96,0.11,1.44,0.16c1.08,0.11,2.17,0.19,3.26,0.25c0.31,0.02,0.62,0.04,0.94,0.05c1.21,0.05,2.42,0.09,3.64,0.09
	c1.22,0,2.44-0.04,3.64-0.09c0.32-0.01,0.62-0.03,0.94-0.05c1.09-0.06,2.17-0.14,3.25-0.25c0.48-0.04,0.96-0.1,1.44-0.16
	c0.59-0.07,1.18-0.14,1.76-0.22c22.4-3.04,41.91-15.14,54.62-32.46c0.28-0.39,0.56-0.78,0.84-1.18c0.29-0.41,0.59-0.82,0.88-1.23
	c0.28,0.41,0.58,0.82,0.87,1.23c0.28,0.4,0.56,0.79,0.85,1.18c12.7,17.32,32.21,29.42,54.61,32.46c0.58,0.08,1.17,0.16,1.76,0.22
	c0.49,0.05,0.96,0.11,1.45,0.16c1.08,0.11,2.16,0.19,3.25,0.25c0.31,0.02,0.62,0.04,0.94,0.05c1.21,0.05,2.42,0.09,3.64,0.09
	c1.55,0,3.1-0.05,4.63-0.14c0.38-0.02,0.76-0.06,1.13-0.09c1.19-0.08,2.38-0.19,3.56-0.32c0.38-0.04,0.75-0.1,1.13-0.14
	c1.23-0.16,2.45-0.34,3.67-0.56c0.29-0.05,0.59-0.1,0.88-0.15c1.42-0.26,2.81-0.56,4.2-0.89c0.07-0.02,0.14-0.03,0.21-0.04V785.6z
	 M1110.35,785.6h-107.23V593.47h107.23V785.6z M915.83,501.73c-0.7-0.28-1.38-0.58-2.06-0.89c-0.28-0.13-0.56-0.25-0.83-0.38
	c-0.85-0.4-1.67-0.83-2.5-1.27c-16.63-9.02-27.94-26.53-27.94-46.59v-33.85h107.23v33.85c0,5.17-0.76,10.16-2.16,14.89
	c-0.16,0.52-0.31,1.04-0.48,1.55c-0.08,0.26-0.18,0.53-0.27,0.79c-0.16,0.47-0.32,0.94-0.5,1.4c-0.12,0.32-0.25,0.63-0.38,0.94
	c-0.23,0.56-0.46,1.13-0.71,1.68c-0.23,0.53-0.46,1.05-0.71,1.57c-0.16,0.33-0.33,0.65-0.5,0.98c-0.19,0.38-0.38,0.76-0.59,1.13
	c-0.19,0.35-0.38,0.69-0.58,1.03c-0.19,0.34-0.38,0.67-0.59,1.01c-0.21,0.36-0.43,0.72-0.66,1.07c-0.18,0.29-0.37,0.57-0.55,0.85
	c-0.25,0.39-0.51,0.78-0.78,1.16c-0.12,0.17-0.25,0.35-0.37,0.52c-8.2,11.45-20.8,19.42-34.97,21.78c-0.01,0-0.03,0.01-0.04,0.01
	c-0.56,0.1-1.12,0.17-1.67,0.25c-0.29,0.04-0.59,0.08-0.89,0.11c-0.44,0.05-0.88,0.1-1.33,0.14c-0.46,0.04-0.93,0.07-1.39,0.1
	c-0.34,0.02-0.67,0.05-1,0.06c-0.83,0.04-1.66,0.07-2.49,0.07c-1.06,0-2.11-0.04-3.16-0.1c-0.27-0.01-0.53-0.04-0.8-0.06
	c-0.82-0.06-1.63-0.14-2.45-0.23c-0.25-0.03-0.5-0.06-0.76-0.1c-0.9-0.12-1.8-0.26-2.69-0.43c-0.13-0.02-0.26-0.04-0.4-0.07
	c-2.11-0.41-4.19-0.94-6.23-1.6c-0.2-0.07-0.41-0.14-0.62-0.2c-0.77-0.26-1.52-0.53-2.28-0.82
	C916.42,501.97,916.12,501.85,915.83,501.73 M945.48,299.22h83.2l-34.75,92.31H892.4L945.48,299.22z M1124.47,418.75v33.85
	c0,5.17-0.77,10.16-2.17,14.89c-0.15,0.52-0.31,1.04-0.48,1.55c-0.08,0.26-0.18,0.53-0.27,0.79c-0.16,0.47-0.32,0.94-0.5,1.4
	c-0.12,0.32-0.25,0.63-0.38,0.94c-0.22,0.56-0.46,1.13-0.7,1.68c-0.23,0.53-0.47,1.05-0.72,1.57c-0.16,0.33-0.33,0.65-0.49,0.98
	c-0.2,0.38-0.39,0.76-0.59,1.13c-0.19,0.35-0.38,0.69-0.58,1.03c-0.19,0.34-0.38,0.67-0.58,1.01c-0.22,0.36-0.44,0.72-0.66,1.07
	c-0.18,0.29-0.37,0.57-0.55,0.85c-0.26,0.39-0.52,0.78-0.78,1.16c-0.13,0.17-0.26,0.35-0.38,0.52c-8.2,11.45-20.8,19.42-34.97,21.78
	c-0.01,0-0.03,0.01-0.04,0.01c-0.55,0.1-1.11,0.17-1.67,0.25c-0.29,0.04-0.59,0.08-0.89,0.11c-0.44,0.05-0.89,0.1-1.33,0.14
	c-0.46,0.04-0.93,0.07-1.39,0.1c-0.34,0.02-0.67,0.05-1,0.06c-0.82,0.04-1.65,0.07-2.49,0.07c-0.83,0-1.66-0.02-2.49-0.07
	c-0.33-0.01-0.67-0.04-1-0.06c-0.47-0.03-0.93-0.07-1.4-0.1c-0.44-0.04-0.88-0.09-1.33-0.14c-0.3-0.03-0.59-0.07-0.89-0.11
	c-0.56-0.08-1.12-0.15-1.67-0.25c-0.02,0-0.03-0.01-0.05-0.01c-14.17-2.36-26.77-10.33-34.97-21.78c-0.13-0.17-0.25-0.35-0.38-0.52
	c-0.26-0.38-0.52-0.77-0.78-1.16c-0.19-0.28-0.37-0.56-0.55-0.85c-0.22-0.35-0.44-0.71-0.66-1.07c-0.2-0.34-0.4-0.67-0.59-1.01
	c-0.19-0.34-0.38-0.68-0.58-1.03c-0.2-0.37-0.39-0.76-0.59-1.13c-0.16-0.32-0.34-0.65-0.5-0.98c-0.25-0.52-0.48-1.04-0.71-1.57
	c-0.25-0.55-0.48-1.12-0.71-1.68c-0.13-0.31-0.25-0.62-0.37-0.94c-0.18-0.46-0.34-0.93-0.5-1.4c-0.09-0.26-0.18-0.52-0.26-0.79
	c-0.17-0.51-0.33-1.03-0.49-1.55c-1.4-4.72-2.16-9.72-2.16-14.89v-33.85H1124.47z M1058.03,299.22h87.23l-18.35,92.31h-103.63
	L1058.03,299.22z M1017.8,145.37h376.91v72.92H1017.8V145.37z M1250.12,272h-0.05h-88.19h-0.05h-95.88v-26.48h279.25V272H1250.12z
	 M1154.93,391.53l18.35-92.31h65.4l18.35,92.31H1154.93z M1259.2,418.75v33.85c0,5.17-0.76,10.16-2.16,14.89
	c-0.16,0.52-0.31,1.04-0.49,1.55c-0.08,0.26-0.17,0.53-0.26,0.79c-0.16,0.47-0.32,0.94-0.5,1.4c-0.12,0.32-0.25,0.63-0.37,0.94
	c-0.23,0.56-0.46,1.13-0.71,1.68c-0.23,0.53-0.47,1.05-0.71,1.57c-0.16,0.33-0.33,0.65-0.5,0.98c-0.2,0.38-0.39,0.76-0.59,1.13
	c-0.19,0.35-0.38,0.69-0.58,1.03c-0.19,0.34-0.39,0.67-0.59,1.01c-0.22,0.36-0.44,0.72-0.66,1.07c-0.18,0.29-0.37,0.57-0.55,0.85
	c-0.26,0.39-0.52,0.78-0.78,1.16c-0.13,0.17-0.25,0.35-0.38,0.52c-8.2,11.45-20.8,19.42-34.97,21.78c-0.02,0-0.03,0.01-0.05,0.01
	c-0.55,0.1-1.11,0.17-1.67,0.25c-0.3,0.04-0.59,0.08-0.89,0.11c-0.44,0.05-0.89,0.1-1.33,0.14c-0.47,0.04-0.93,0.07-1.4,0.1
	c-0.33,0.02-0.67,0.05-1,0.06c-0.83,0.04-1.66,0.07-2.49,0.07c-0.83,0-1.67-0.02-2.49-0.07c-0.34-0.01-0.67-0.04-1-0.06
	c-0.46-0.03-0.93-0.07-1.39-0.1c-0.44-0.04-0.89-0.09-1.33-0.14c-0.29-0.03-0.59-0.07-0.89-0.11c-0.56-0.08-1.12-0.15-1.67-0.25
	c-0.01,0-0.03-0.01-0.04-0.01c-14.18-2.36-26.78-10.33-34.97-21.78c-0.12-0.17-0.25-0.35-0.38-0.52c-0.26-0.38-0.52-0.77-0.78-1.16
	c-0.19-0.28-0.37-0.56-0.55-0.85c-0.22-0.35-0.44-0.71-0.66-1.07c-0.2-0.34-0.39-0.67-0.58-1.01c-0.2-0.34-0.39-0.68-0.58-1.03
	c-0.2-0.37-0.4-0.76-0.59-1.13c-0.17-0.32-0.34-0.65-0.5-0.98c-0.25-0.52-0.49-1.04-0.72-1.57c-0.25-0.55-0.48-1.12-0.7-1.68
	c-0.13-0.31-0.26-0.62-0.38-0.94c-0.17-0.46-0.34-0.93-0.5-1.4c-0.09-0.26-0.19-0.52-0.27-0.79c-0.17-0.51-0.33-1.03-0.48-1.55
	c-1.4-4.72-2.17-9.72-2.17-14.89v-33.85H1259.2z M1393.93,418.75v33.85c0,5.17-0.76,10.16-2.16,14.89
	c-0.16,0.52-0.31,1.04-0.48,1.55c-0.09,0.26-0.18,0.53-0.27,0.79c-0.16,0.47-0.32,0.94-0.5,1.4c-0.12,0.32-0.25,0.63-0.38,0.94
	c-0.23,0.56-0.46,1.13-0.71,1.68c-0.23,0.53-0.46,1.05-0.71,1.57c-0.16,0.33-0.33,0.65-0.5,0.98c-0.19,0.38-0.38,0.76-0.59,1.13
	c-0.19,0.35-0.38,0.69-0.58,1.03c-0.19,0.34-0.38,0.67-0.59,1.01c-0.21,0.36-0.43,0.72-0.66,1.07c-0.18,0.29-0.37,0.57-0.55,0.85
	c-0.25,0.39-0.51,0.78-0.78,1.16c-0.12,0.17-0.25,0.35-0.37,0.52c-8.2,11.45-20.8,19.42-34.97,21.78c-0.02,0-0.03,0.01-0.04,0.01
	c-0.56,0.1-1.12,0.17-1.67,0.25c-0.29,0.04-0.59,0.08-0.89,0.11c-0.44,0.05-0.88,0.1-1.33,0.14c-0.46,0.04-0.93,0.07-1.39,0.1
	c-0.34,0.02-0.67,0.05-1,0.06c-0.83,0.04-1.66,0.07-2.49,0.07s-1.66-0.02-2.49-0.07c-0.34-0.01-0.67-0.04-1-0.06
	c-0.46-0.03-0.93-0.07-1.39-0.1c-0.44-0.04-0.89-0.09-1.33-0.14c-0.29-0.03-0.59-0.07-0.89-0.11c-0.56-0.08-1.12-0.15-1.67-0.25
	c-0.01,0-0.02-0.01-0.04-0.01c-14.18-2.36-26.77-10.33-34.97-21.78c-0.12-0.17-0.25-0.35-0.37-0.52c-0.27-0.38-0.53-0.77-0.78-1.16
	c-0.19-0.28-0.37-0.56-0.55-0.85c-0.23-0.35-0.44-0.71-0.66-1.07c-0.2-0.34-0.4-0.67-0.59-1.01c-0.2-0.34-0.39-0.68-0.58-1.03
	c-0.2-0.37-0.4-0.76-0.59-1.13c-0.17-0.32-0.34-0.65-0.5-0.98c-0.25-0.52-0.49-1.04-0.71-1.57c-0.25-0.55-0.48-1.12-0.71-1.68
	c-0.13-0.31-0.26-0.62-0.38-0.94c-0.17-0.46-0.34-0.93-0.5-1.4c-0.09-0.26-0.18-0.52-0.27-0.79c-0.17-0.51-0.33-1.03-0.48-1.55
	c-1.4-4.72-2.16-9.72-2.16-14.89v-33.85H1393.93z M1388.68,391.53h-103.63l-18.35-92.31h87.23L1388.68,391.53z M1464.38,299.22
	l54.14,92.31h-100.51l-34.75-92.31H1464.38z M1556.15,405.13c0-0.04-0.01-0.07-0.01-0.1c-0.01-0.52-0.04-1.02-0.1-1.52
	c-0.02-0.14-0.04-0.29-0.07-0.43c-0.07-0.41-0.14-0.82-0.25-1.22c-0.03-0.14-0.07-0.27-0.1-0.41c-0.14-0.5-0.31-1-0.51-1.48
	c-0.01-0.02-0.01-0.03-0.02-0.05c-0.22-0.52-0.47-1.01-0.75-1.49c-0.02-0.04-0.04-0.08-0.06-0.12l-70.12-119.53
	c-2.46-4.19-6.99-6.77-11.89-6.77h-99.59v-26.48h35.77c7.6,0,13.75-6.1,13.75-13.61V131.77c0-7.52-6.16-13.61-13.75-13.61h-404.41
	c-7.59,0-13.75,6.1-13.75,13.61v100.14c0,7.52,6.16,13.61,13.75,13.61h34.4V272H937.49c-4.94,0-9.5,2.63-11.95,6.88L856.8,398.41
	c-0.02,0.02-0.02,0.05-0.04,0.08c-0.27,0.48-0.52,0.98-0.73,1.49c-0.03,0.07-0.05,0.14-0.08,0.2c-0.17,0.44-0.32,0.88-0.45,1.34
	c-0.04,0.14-0.07,0.28-0.1,0.41c-0.1,0.41-0.18,0.82-0.24,1.24c-0.02,0.13-0.05,0.26-0.06,0.38c-0.07,0.52-0.1,1.04-0.1,1.58v47.47
	c0,27.18,13.72,51.23,34.65,65.77v280.84c0,7.52,6.16,13.61,13.75,13.61h85.97h134.74h384.1c7.6,0,13.75-6.09,13.75-13.61V518.06
	c20.68-14.57,34.21-38.47,34.21-65.46v-47.47C1556.15,405.13,1556.15,405.13,1556.15,405.13"/>
<path class="st1" d="M1426.27,719.83h-197.15V615.08h197.15V719.83z M1440.01,590.05h-224.65c-7.59,0-13.75,5.6-13.75,12.51v129.78
	c0,6.91,6.16,12.51,13.75,12.51h224.65c7.6,0,13.75-5.6,13.75-12.51V602.57C1453.76,595.66,1447.61,590.05,1440.01,590.05"/>
<g>
	<path class="st2" d="M79.54,198.56c0-25.31,15.45-42.22,38.63-42.22c8.85,0,17.69,2.13,22.73,5.38v17.81
		c-4.14-2.46-10.86-4.14-16.91-4.14c-12.32,0-20.6,9.41-20.6,23.4c0,14.22,8.51,23.63,21.17,23.63c5.6,0,12.54-2.13,17.25-5.26
		v18.37c-5.49,3.58-14.89,5.94-23.4,5.94C95.11,241.45,79.54,224.31,79.54,198.56z"/>
	<path class="st2" d="M148.08,209.53c0-19.15,12.54-31.92,31.24-31.92c18.59,0,31.02,12.77,31.02,31.92
		c0,19.15-12.43,31.92-31.02,31.92C160.62,241.45,148.08,228.68,148.08,209.53z M187.27,209.53c0-7.61-3.14-12.77-8.06-12.77
		c-4.82,0-8.06,5.15-8.06,12.77c0,7.62,3.25,12.77,8.06,12.77C184.14,222.3,187.27,217.15,187.27,209.53z"/>
	<path class="st2" d="M309.9,200.68v39.64h-22.4v-36.4c0-4.7-1.79-7.17-5.15-7.17c-4.03,0-6.61,4.59-6.61,11.65v31.92h-22.4v-36.4
		c0-4.7-1.79-7.17-5.15-7.17c-4.03,0-6.61,4.59-6.61,11.65v31.92h-22.4v-61.59h18.25l2.13,9.29c4.7-7.17,11.76-10.41,17.92-10.41
		c7.39,0,12.65,3.02,15.57,9.07c5.04-6.27,12.32-9.07,18.59-9.07C303.62,177.61,309.9,185.57,309.9,200.68z"/>
	<path class="st2" d="M318.29,209.53c0-19.15,12.54-31.92,31.24-31.92c18.59,0,31.02,12.77,31.02,31.92
		c0,19.15-12.43,31.92-31.02,31.92C330.83,241.45,318.29,228.68,318.29,209.53z M357.49,209.53c0-7.61-3.14-12.77-8.06-12.77
		c-4.82,0-8.06,5.15-8.06,12.77c0,7.62,3.25,12.77,8.06,12.77C354.35,222.3,357.49,217.15,357.49,209.53z"/>
</g>
<g>
	<path class="st2" d="M82.46,345.75l-3.36-17.81c5.6,3.02,13.89,5.04,20.72,5.04c4.93,0,8.17-1.34,8.17-3.81
		c0-1.46-1.23-2.58-3.02-3.14l-10.08-3.25c-8.62-2.8-14.89-7.5-14.89-16.69c0-12.32,9.74-20.49,24.3-20.49
		c7.61,0,16.69,1.79,22.51,4.48v16.46c-5.04-2.58-12.54-4.37-18.93-4.37c-3.36,0-5.49,1.01-5.49,2.58c0,1.34,0.9,1.9,2.46,2.46
		l10.19,3.36c7.39,2.46,15.34,7.39,15.34,16.8c0,13.21-11.09,22.06-27.66,22.06C94.33,349.45,86.26,347.99,82.46,345.75z"/>
	<path class="st2" d="M138.89,260.98h22.84v20.16h-22.84V260.98z M139.12,286.73h22.4v61.59h-22.4V286.73z"/>
	<path class="st2" d="M263.64,308.68v39.64h-22.4v-36.39c0-4.7-1.79-7.17-5.15-7.17c-4.03,0-6.61,4.59-6.61,11.65v31.92h-22.4
		v-36.39c0-4.7-1.79-7.17-5.15-7.17c-4.03,0-6.61,4.59-6.61,11.65v31.92h-22.4v-61.59h18.25l2.13,9.29
		c4.7-7.17,11.76-10.41,17.92-10.41c7.39,0,12.65,3.02,15.57,9.07c5.04-6.27,12.32-9.07,18.59-9.07
		C257.37,285.61,263.64,293.57,263.64,308.68z"/>
	<path class="st2" d="M336.43,317.87c0,18.93-9.52,31.58-23.85,31.58c-6.5,0-11.65-2.35-15.57-6.72v30.24h-22.4v-86.23h19.04
		l1.46,8.06c4.03-5.82,9.85-9.18,17.47-9.18C326.91,285.61,336.43,298.49,336.43,317.87z M313.36,317.64
		c0-7.73-3.25-12.88-8.06-12.88c-4.93,0-8.29,5.15-8.29,12.77c0,7.62,3.36,12.77,8.29,12.77
		C310.12,330.3,313.36,325.26,313.36,317.64z"/>
	<path class="st2" d="M345.5,260.98h22.4v87.35h-22.4V260.98z"/>
	<path class="st2" d="M379.1,260.98h22.84v20.16H379.1V260.98z M379.32,286.73h22.4v61.59h-22.4V286.73z"/>
	<path class="st2" d="M441.36,284.72v2.02h12.65v18.25h-12.65v43.34h-22.4v-43.34h-8.17v-18.25h8.17v-5.49
		c0-12.88,7.95-21.39,19.71-21.39c4.93,0,10.3,0.56,13.89,2.02l3.36,18.14c-2.46-0.67-4.93-1.01-8.06-1.01
		C443.93,279.01,441.36,281.25,441.36,284.72z M483.91,260.98v20.16h-22.84v-20.16H483.91z M461.29,286.73h22.4v61.59h-22.4V286.73z
		"/>
	<path class="st2" d="M492.53,317.53c0-19.15,12.77-31.92,31.8-31.92c6.5,0,14.11,1.68,19.15,4.14v18.48
		c-4.59-2.13-10.53-3.47-14.78-3.47c-7.84,0-12.99,5.15-12.99,12.77c0,7.62,5.38,12.77,13.55,12.77c5.04,0,10.64-1.12,15.12-3.36
		v18.14c-4.7,2.58-12.88,4.37-20.38,4.37C505.08,349.45,492.53,336.68,492.53,317.53z"/>
	<path class="st2" d="M607.99,309.69v38.63h-18.25l-1.9-8.4c-3.7,5.93-10.3,9.52-18.48,9.52c-12.09,0-18.25-6.16-18.25-18.03
		c0-11.65,10.08-19.15,25.08-19.15h9.41c-0.11-5.38-4.14-8.06-11.53-8.06c-6.5,0-12.43,1.23-17.81,3.7v-18.25
		c6.05-2.69,13.21-4.03,21.39-4.03C597.91,285.61,607.99,293.9,607.99,309.69z M585.59,323.91v-0.11h-5.26
		c-3.7,0-6.16,2.02-6.16,4.93c0,3.25,1.34,4.93,3.92,4.93C583.02,333.66,585.59,330.3,585.59,323.91z"/>
	<path class="st2" d="M661.85,285.61V307h-6.16c-8.85,0-14.45,5.04-14.45,12.77v28.56h-22.4v-61.59h18.25l2.35,10.3
		c4.93-7.84,12.43-11.42,18.81-11.42H661.85z"/>
</g>
<g>
	<path class="st2" d="M136.54,430.57H102.5c1.57,5.49,6.38,8.29,14.45,8.29c6.5,0,12.88-1.01,17.36-2.91l-3.36,18.14
		c-5.49,2.13-12.65,3.36-20.49,3.36c-18.81,0-31.36-12.43-31.36-31.02c0-19.71,12.65-32.81,31.58-32.81
		c15.57,0,25.87,12.21,25.87,30.57V430.57z M102.73,419.03h12.21c-0.22-4.48-1.9-6.83-5.38-6.83S103.73,414.56,102.73,419.03z"/>
	<path class="st2" d="M222.88,417.69v38.63h-18.25l-1.9-8.4c-3.7,5.93-10.3,9.52-18.48,9.52c-12.09,0-18.25-6.16-18.25-18.03
		c0-11.65,10.08-19.15,25.08-19.15h9.41c-0.11-5.38-4.14-8.06-11.53-8.06c-6.5,0-12.43,1.23-17.81,3.7v-18.25
		c6.05-2.69,13.21-4.03,21.39-4.03C212.8,393.61,222.88,401.9,222.88,417.69z M200.49,431.91v-0.11h-5.26
		c-3.7,0-6.16,2.02-6.16,4.93c0,3.25,1.34,4.93,3.92,4.93C197.91,441.66,200.49,438.3,200.49,431.91z"/>
	<path class="st2" d="M297.13,458.57c0,14.11-14.45,23.52-36.17,23.52c-19.04,0-31.8-7.28-31.8-18.25c0-4.03,2.69-8.06,6.94-10.86
		c-2.91-2.35-4.7-6.05-4.7-10.42c0-5.26,2.91-10.64,7.5-14.78c-3.7-3.36-5.82-7.62-5.82-12.65c0-12.88,11.65-21.5,29-21.5
		c2.91,0,5.82,0.34,8.62,1.01l9.85-9.85l15.01,15.01l-6.05,5.93c2.35,2.91,3.7,6.16,3.7,9.41c0,11.98-11.98,19.93-30.01,19.93
		c-4.03,0-7.84-0.45-11.31-1.23c-1.23,0.78-1.9,1.9-1.9,2.91c0,1.57,1.23,2.69,3.02,2.69h22.73
		C288.62,439.42,297.13,447.03,297.13,458.57z M275.74,459.57c0-1.9-1.57-3.25-3.92-3.25h-19.6c-2.35,0-3.92,1.34-3.92,3.25
		c0,3.14,5.49,5.26,13.77,5.26C270.25,464.84,275.74,462.71,275.74,459.57z M256.14,415.12c0,3.58,2.8,6.05,6.94,6.05
		c4.14,0,6.94-2.46,6.94-6.05c0-3.58-2.8-6.05-6.94-6.05C258.94,409.07,256.14,411.53,256.14,415.12z"/>
	<path class="st2" d="M303.84,368.98h22.84v20.16h-22.84V368.98z M304.07,394.73h22.4v61.59h-22.4V394.73z"/>
	<path class="st2" d="M337.89,368.98h22.4v87.35h-22.4V368.98z"/>
	<path class="st2" d="M371.48,368.98h22.84v20.16h-22.84V368.98z M371.7,394.73h22.4v61.59h-22.4V394.73z"/>
	<path class="st2" d="M403.95,440.65l24.64-27.66h-24.08v-18.25h51.74v15.68l-24.08,27.55h26.09l-3.36,18.37h-50.95V440.65z"/>
	<path class="st2" d="M520.64,417.69v38.63h-18.25l-1.9-8.4c-3.7,5.93-10.3,9.52-18.48,9.52c-12.09,0-18.25-6.16-18.25-18.03
		c0-11.65,10.08-19.15,25.08-19.15h9.41c-0.11-5.38-4.14-8.06-11.53-8.06c-6.5,0-12.43,1.23-17.81,3.7v-18.25
		c6.05-2.69,13.21-4.03,21.39-4.03C510.56,393.61,520.64,401.9,520.64,417.69z M498.24,431.91v-0.11h-5.26
		c-3.7,0-6.16,2.02-6.16,4.93c0,3.25,1.34,4.93,3.92,4.93C495.67,441.66,498.24,438.3,498.24,431.91z"/>
	<path class="st2" d="M574.5,393.61V415h-6.16c-8.85,0-14.45,5.04-14.45,12.77v28.56h-22.4v-61.59h18.25l2.35,10.3
		c4.93-7.84,12.43-11.42,18.81-11.42H574.5z"/>
</g>
<g>
	<path class="st2" d="M79.1,533.53c0-19.15,12.54-31.92,31.24-31.92c18.59,0,31.02,12.77,31.02,31.92s-12.43,31.92-31.02,31.92
		C91.64,565.45,79.1,552.68,79.1,533.53z M118.29,533.53c0-7.61-3.14-12.77-8.06-12.77c-4.82,0-8.06,5.15-8.06,12.77
		c0,7.62,3.25,12.77,8.06,12.77C115.16,546.3,118.29,541.15,118.29,533.53z"/>
	<path class="st2" d="M235.31,533.87c0,18.93-9.52,31.58-23.85,31.58c-6.5,0-11.65-2.35-15.57-6.72v30.24h-22.4v-86.23h19.04
		l1.46,8.06c4.03-5.82,9.85-9.18,17.47-9.18C225.79,501.61,235.31,514.49,235.31,533.87z M212.24,533.64
		c0-7.73-3.25-12.88-8.06-12.88c-4.93,0-8.29,5.15-8.29,12.77c0,7.62,3.36,12.77,8.29,12.77C209,546.3,212.24,541.26,212.24,533.64z
		"/>
	<path class="st2" d="M287.39,501.61V523h-6.16c-8.85,0-14.45,5.04-14.45,12.77v28.56h-22.4v-61.59h18.25l2.35,10.3
		c4.93-7.84,12.43-11.42,18.81-11.42H287.39z"/>
	<path class="st2" d="M290.63,533.53c0-19.15,12.54-31.92,31.24-31.92c18.59,0,31.02,12.77,31.02,31.92s-12.43,31.92-31.02,31.92
		C303.17,565.45,290.63,552.68,290.63,533.53z M329.83,533.53c0-7.61-3.14-12.77-8.06-12.77c-4.82,0-8.06,5.15-8.06,12.77
		c0,7.62,3.25,12.77,8.06,12.77C326.69,546.3,329.83,541.15,329.83,533.53z"/>
	<path class="st2" d="M359.17,533.53c0-19.15,12.77-31.92,31.8-31.92c6.5,0,14.11,1.68,19.15,4.14v18.48
		c-4.59-2.13-10.53-3.47-14.78-3.47c-7.84,0-12.99,5.15-12.99,12.77c0,7.62,5.38,12.77,13.55,12.77c5.04,0,10.64-1.12,15.12-3.36
		v18.14c-4.7,2.58-12.88,4.37-20.38,4.37C371.71,565.45,359.17,552.68,359.17,533.53z"/>
	<path class="st2" d="M475.07,538.57h-34.04c1.57,5.49,6.38,8.29,14.45,8.29c6.5,0,12.88-1.01,17.36-2.91l-3.36,18.14
		c-5.49,2.13-12.65,3.36-20.49,3.36c-18.81,0-31.36-12.43-31.36-31.02c0-19.71,12.65-32.81,31.58-32.81
		c15.57,0,25.87,12.21,25.87,30.57V538.57z M441.25,527.03h12.21c-0.22-4.48-1.9-6.83-5.38-6.83S442.26,522.56,441.25,527.03z"/>
	<path class="st2" d="M484.81,561.75l-3.36-17.81c5.6,3.02,13.89,5.04,20.72,5.04c4.93,0,8.17-1.34,8.17-3.81
		c0-1.46-1.23-2.58-3.02-3.14l-10.08-3.25c-8.62-2.8-14.89-7.5-14.89-16.69c0-12.32,9.74-20.49,24.3-20.49
		c7.61,0,16.69,1.79,22.51,4.48v16.46c-5.04-2.58-12.54-4.37-18.93-4.37c-3.36,0-5.49,1.01-5.49,2.58c0,1.34,0.9,1.9,2.46,2.46
		l10.19,3.36c7.39,2.46,15.34,7.39,15.34,16.8c0,13.21-11.09,22.06-27.66,22.06C496.68,565.45,488.62,563.99,484.81,561.75z"/>
	<path class="st2" d="M542.26,561.75l-3.36-17.81c5.6,3.02,13.89,5.04,20.72,5.04c4.93,0,8.17-1.34,8.17-3.81
		c0-1.46-1.23-2.58-3.02-3.14l-10.08-3.25c-8.62-2.8-14.89-7.5-14.89-16.69c0-12.32,9.74-20.49,24.3-20.49
		c7.61,0,16.69,1.79,22.51,4.48v16.46c-5.04-2.58-12.54-4.37-18.93-4.37c-3.36,0-5.49,1.01-5.49,2.58c0,1.34,0.9,1.9,2.46,2.46
		l10.19,3.36c7.39,2.46,15.34,7.39,15.34,16.8c0,13.21-11.09,22.06-27.66,22.06C554.13,565.45,546.06,563.99,542.26,561.75z"/>
	<path class="st2" d="M596.34,533.53c0-19.15,12.54-31.92,31.24-31.92c18.59,0,31.02,12.77,31.02,31.92s-12.43,31.92-31.02,31.92
		C608.89,565.45,596.34,552.68,596.34,533.53z M635.54,533.53c0-7.61-3.14-12.77-8.06-12.77c-4.82,0-8.06,5.15-8.06,12.77
		c0,7.62,3.25,12.77,8.06,12.77C632.4,546.3,635.54,541.15,635.54,533.53z"/>
</g>
<g>
	<path class="st2" d="M141.14,584.98v87.35h-18.03l-2.02-8.62c-4.03,6.27-9.97,9.74-17.92,9.74c-14.33,0-23.85-12.65-23.85-31.58
		c0-19.37,9.52-32.25,23.85-32.25c6.49,0,11.65,2.46,15.57,6.72v-31.36H141.14z M118.74,641.53c0-7.61-3.36-12.77-8.29-12.77
		c-4.82,0-8.06,5.15-8.06,12.88c0,7.62,3.25,12.65,8.06,12.65C115.38,654.3,118.74,649.15,118.74,641.53z"/>
	<path class="st2" d="M207.43,646.57h-34.04c1.57,5.49,6.38,8.29,14.45,8.29c6.5,0,12.88-1.01,17.36-2.91l-3.36,18.14
		c-5.49,2.13-12.65,3.36-20.49,3.36c-18.81,0-31.36-12.43-31.36-31.02c0-19.71,12.65-32.81,31.58-32.81
		c15.57,0,25.87,12.21,25.87,30.57V646.57z M173.61,635.03h12.21c-0.22-4.48-1.9-6.83-5.38-6.83S174.62,630.56,173.61,635.03z"/>
	<path class="st2" d="M293.77,633.69v38.63h-18.25l-1.9-8.4c-3.7,5.93-10.3,9.52-18.48,9.52c-12.09,0-18.25-6.16-18.25-18.03
		c0-11.65,10.08-19.15,25.08-19.15h9.41c-0.11-5.38-4.14-8.06-11.53-8.06c-6.5,0-12.43,1.23-17.81,3.7v-18.25
		c6.05-2.69,13.21-4.03,21.39-4.03C283.69,609.61,293.77,617.9,293.77,633.69z M271.37,647.91v-0.11h-5.26
		c-3.7,0-6.16,2.02-6.16,4.93c0,3.25,1.34,4.93,3.92,4.93C268.8,657.66,271.37,654.3,271.37,647.91z"/>
	<path class="st2" d="M366.44,641.87c0,18.93-9.52,31.58-23.85,31.58c-7.84,0-13.77-3.47-17.81-9.63l-1.9,8.51h-18.25v-87.35h22.4
		v31.36c3.92-4.25,9.07-6.72,15.57-6.72C356.93,609.61,366.44,622.49,366.44,641.87z M343.38,641.64c0-7.73-3.25-12.88-8.06-12.88
		c-4.93,0-8.29,5.15-8.29,12.77c0,7.62,3.36,12.77,8.29,12.77C340.13,654.3,343.38,649.26,343.38,641.64z"/>
	<path class="st2" d="M430.39,646.57h-34.04c1.57,5.49,6.38,8.29,14.45,8.29c6.5,0,12.88-1.01,17.36-2.91l-3.36,18.14
		c-5.49,2.13-12.65,3.36-20.49,3.36c-18.81,0-31.36-12.43-31.36-31.02c0-19.71,12.65-32.81,31.58-32.81
		c15.57,0,25.87,12.21,25.87,30.57V646.57z M396.57,635.03h12.21c-0.22-4.48-1.9-6.83-5.38-6.83S397.57,630.56,396.57,635.03z"/>
	<path class="st2" d="M482.35,609.61V631h-6.16c-8.85,0-14.45,5.04-14.45,12.77v28.56h-22.4v-61.59h18.25l2.35,10.3
		c4.93-7.84,12.43-11.42,18.81-11.42H482.35z"/>
	<path class="st2" d="M534.75,652.39l-3.36,18.25c-3.81,1.68-9.85,2.8-15.12,2.8c-12.54,0-20.94-8.17-20.94-20.49v-23.96h-9.63
		v-18.25h10.86l2.69-14.11h18.48v14.11h16.24v18.25h-16.24v19.26c0,3.58,2.35,6.05,5.94,6.05
		C527.59,654.3,531.62,653.62,534.75,652.39z"/>
	<path class="st2" d="M599.81,610.73v61.59h-18.25l-2.13-9.41c-4.82,7.28-12.21,10.53-18.48,10.53c-12.43,0-18.81-8.29-18.81-24.19
		v-38.52h22.4v35.28c0,5.49,1.9,8.29,5.71,8.29c4.37,0,7.17-4.59,7.17-11.65v-31.92H599.81z"/>
	<path class="st2" d="M654.24,609.61V631h-6.16c-8.85,0-14.45,5.04-14.45,12.77v28.56h-22.4v-61.59h18.25l2.35,10.3
		c4.93-7.84,12.43-11.42,18.81-11.42H654.24z"/>
	<path class="st2" d="M714.37,633.69v38.63h-18.25l-1.9-8.4c-3.7,5.93-10.3,9.52-18.48,9.52c-12.09,0-18.25-6.16-18.25-18.03
		c0-11.65,10.08-19.15,25.08-19.15h9.41c-0.11-5.38-4.14-8.06-11.53-8.06c-6.5,0-12.43,1.23-17.81,3.7v-18.25
		c6.05-2.69,13.21-4.03,21.39-4.03C704.29,609.61,714.37,617.9,714.37,633.69z M691.98,647.91v-0.11h-5.26
		c-3.7,0-6.16,2.02-6.16,4.93c0,3.25,1.34,4.93,3.92,4.93C689.4,657.66,691.98,654.3,691.98,647.91z"/>
</g>
<g>
	<path class="st2" d="M141.14,692.98v87.35h-18.03l-2.02-8.62c-4.03,6.27-9.97,9.74-17.92,9.74c-14.33,0-23.85-12.65-23.85-31.58
		c0-19.37,9.52-32.25,23.85-32.25c6.49,0,11.65,2.46,15.57,6.72v-31.36H141.14z M118.74,749.53c0-7.61-3.36-12.77-8.29-12.77
		c-4.82,0-8.06,5.15-8.06,12.88c0,7.62,3.25,12.65,8.06,12.65C115.38,762.3,118.74,757.15,118.74,749.53z"/>
	<path class="st2" d="M207.43,754.57h-34.04c1.57,5.49,6.38,8.29,14.45,8.29c6.5,0,12.88-1.01,17.36-2.91l-3.36,18.14
		c-5.49,2.13-12.65,3.36-20.49,3.36c-18.81,0-31.36-12.43-31.36-31.02c0-19.71,12.65-32.81,31.58-32.81
		c15.57,0,25.87,12.21,25.87,30.57V754.57z M173.61,743.03h12.21c-0.22-4.48-1.9-6.83-5.38-6.83S174.62,738.56,173.61,743.03z"/>
	<path class="st2" d="M294.55,754.57h-34.04c1.57,5.49,6.38,8.29,14.45,8.29c6.5,0,12.88-1.01,17.36-2.91l-3.36,18.14
		c-5.49,2.13-12.65,3.36-20.49,3.36c-18.81,0-31.36-12.43-31.36-31.02c0-19.71,12.65-32.81,31.58-32.81
		c15.57,0,25.87,12.21,25.87,30.57V754.57z M260.73,743.03h12.21c-0.22-4.48-1.9-6.83-5.38-6.83S261.74,738.56,260.73,743.03z"/>
	<path class="st2" d="M394.22,740.68v39.64h-22.4v-36.39c0-4.7-1.79-7.17-5.15-7.17c-4.03,0-6.61,4.59-6.61,11.65v31.92h-22.4
		v-36.39c0-4.7-1.79-7.17-5.15-7.17c-4.03,0-6.61,4.59-6.61,11.65v31.92h-22.4v-61.59h18.25l2.13,9.29
		c4.7-7.17,11.76-10.41,17.92-10.41c7.39,0,12.65,3.02,15.57,9.07c5.04-6.27,12.32-9.07,18.59-9.07
		C387.95,717.61,394.22,725.57,394.22,740.68z"/>
	<path class="st2" d="M467,749.87c0,18.93-9.52,31.58-23.85,31.58c-6.5,0-11.65-2.35-15.57-6.72v30.24h-22.4v-86.23h19.04l1.46,8.06
		c4.03-5.82,9.85-9.18,17.47-9.18C457.49,717.61,467,730.49,467,749.87z M443.94,749.64c0-7.73-3.25-12.88-8.06-12.88
		c-4.93,0-8.29,5.15-8.29,12.77c0,7.62,3.36,12.77,8.29,12.77C440.69,762.3,443.94,757.26,443.94,749.64z"/>
	<path class="st2" d="M519.08,717.61V739h-6.16c-8.85,0-14.45,5.04-14.45,12.77v28.56h-22.4v-61.59h18.25l2.35,10.3
		c4.93-7.84,12.43-11.42,18.81-11.42H519.08z"/>
	<path class="st2" d="M579.66,754.57h-34.04c1.57,5.49,6.38,8.29,14.45,8.29c6.5,0,12.88-1.01,17.36-2.91l-3.36,18.14
		c-5.49,2.13-12.65,3.36-20.49,3.36c-18.81,0-31.36-12.43-31.36-31.02c0-19.71,12.65-32.81,31.58-32.81
		c15.57,0,25.87,12.21,25.87,30.57V754.57z M545.84,743.03h12.21c-0.22-4.48-1.9-6.83-5.38-6.83S546.85,738.56,545.84,743.03z"/>
	<path class="st2" d="M589.4,777.75l-3.36-17.81c5.6,3.02,13.89,5.04,20.72,5.04c4.93,0,8.17-1.34,8.17-3.81
		c0-1.46-1.23-2.58-3.02-3.14l-10.08-3.25c-8.62-2.8-14.89-7.5-14.89-16.69c0-12.32,9.74-20.49,24.3-20.49
		c7.61,0,16.69,1.79,22.51,4.48v16.46c-5.04-2.58-12.54-4.37-18.93-4.37c-3.36,0-5.49,1.01-5.49,2.58c0,1.34,0.9,1.9,2.46,2.46
		l10.19,3.36c7.39,2.46,15.34,7.39,15.34,16.8c0,13.21-11.09,22.06-27.66,22.06C601.27,781.45,593.21,779.99,589.4,777.75z"/>
	<path class="st2" d="M700.15,741.69v38.63H681.9l-1.9-8.4c-3.7,5.93-10.3,9.52-18.48,9.52c-12.09,0-18.25-6.16-18.25-18.03
		c0-11.65,10.08-19.15,25.08-19.15h9.41c-0.11-5.38-4.14-8.06-11.53-8.06c-6.5,0-12.43,1.23-17.81,3.7v-18.25
		c6.05-2.69,13.21-4.03,21.39-4.03C690.07,717.61,700.15,725.9,700.15,741.69z M677.75,755.91v-0.11h-5.26
		c-3.7,0-6.16,2.02-6.16,4.93c0,3.25,1.34,4.93,3.92,4.93C675.18,765.66,677.75,762.3,677.75,755.91z"/>
	<path class="st2" d="M711.8,777.75l-3.36-17.81c5.6,3.02,13.89,5.04,20.72,5.04c4.93,0,8.17-1.34,8.17-3.81
		c0-1.46-1.23-2.58-3.02-3.14l-10.08-3.25c-8.62-2.8-14.89-7.5-14.89-16.69c0-12.32,9.74-20.49,24.3-20.49
		c7.61,0,16.69,1.79,22.51,4.48v16.46c-5.04-2.58-12.54-4.37-18.93-4.37c-3.36,0-5.49,1.01-5.49,2.58c0,1.34,0.9,1.9,2.46,2.46
		l10.19,3.36c7.39,2.46,15.34,7.39,15.34,16.8c0,13.21-11.09,22.06-27.66,22.06C723.67,781.45,715.6,779.99,711.8,777.75z"/>
</g>
</svg>
